<?xml version="1.0" standalone="no"?>
<!DOCTYPE svg PUBLIC "-//W3C//DTD SVG 1.1//EN" "http://www.w3.org/Graphics/SVG/1.1/DTD/svg11.dtd" >
<svg xmlns="http://www.w3.org/2000/svg">
<metadata>
<json>
<![CDATA[
{
	"fontFamily": "AMB-iconfont",
	"majorVersion": 1,
	"minorVersion": 1,
	"designer": "ncomz design",
	"license": "MIT",
	"copyright": "ncomz",
	"version": "Version 1.1",
	"fontId": "AMB-iconfont",
	"psName": "AMB-iconfont",
	"subFamily": "Regular",
	"fullName": "AMB-iconfont",
	"description": "Font generated by IcoMoon."
}
]]>
</json>
</metadata>
<defs>
<font id="AMB-iconfont" horiz-adv-x="1024">
<font-face units-per-em="1024" ascent="960" descent="-64" />
<missing-glyph horiz-adv-x="1024" />
<glyph unicode="&#x20;" horiz-adv-x="512" d="" />
<glyph unicode="&#xe900;" glyph-name="001_arrow_right" data-tags="arrow_right" d="M705.755 434.798l-335.799-335.762c-6.623-6.619-15.771-10.712-25.874-10.712-20.216 0-36.605 16.388-36.605 36.605 0 10.113 4.101 19.268 10.73 25.892l310.565 310.565-310.565 310.565c-6.622 6.622-10.717 15.77-10.717 25.874 0 20.209 16.383 36.592 36.592 36.592 10.105 0 19.252-4.096 25.874-10.717l335.799-335.579c6.61-6.918 10.679-16.314 10.679-26.661s-4.068-19.742-10.693-26.675z" />
<glyph unicode="&#xe901;" glyph-name="002_arrow_left" data-tags="arrow_left" d="M705.243 771.95l-310.601-310.565 310.565-310.565c6.633-6.624 10.736-15.779 10.736-25.893 0-20.209-16.383-36.592-36.592-36.592-10.095 0-19.236 4.088-25.856 10.7l-335.798 335.762c-6.55 6.911-10.578 16.27-10.578 26.569s4.028 19.658 10.595 26.587l335.782 335.745c6.622 6.622 15.77 10.717 25.874 10.717 20.209 0 36.592-16.383 36.592-36.592 0-10.105-4.096-19.252-10.717-25.874z" />
<glyph unicode="&#xe902;" glyph-name="003_arrow_down" data-tags="arrow_down" d="M874.313 602.843l-335.762-335.762c-6.908-6.558-16.267-10.592-26.569-10.592s-19.662 4.034-26.586 10.608l-335.745 335.746c-6.622 6.622-10.717 15.77-10.717 25.874 0 20.209 16.383 36.592 36.592 36.592 10.105 0 19.252-4.096 25.874-10.717l310.565-310.565 310.565 310.565c6.625 6.63 15.78 10.73 25.893 10.73 20.216 0 36.605-16.388 36.605-36.605 0-10.104-4.093-19.251-10.712-25.874z" />
<glyph unicode="&#xe903;" glyph-name="004_arrow_up" data-tags="arrow_up" d="M874.313 267.045c-6.62-6.627-15.768-10.726-25.874-10.726s-19.255 4.099-25.874 10.726l-310.565 310.565-310.601-310.565c-6.622-6.622-15.77-10.717-25.874-10.717-20.209 0-36.592 16.383-36.592 36.592 0 10.105 4.096 19.252 10.717 25.874l335.762 335.762c6.908 6.558 16.267 10.592 26.569 10.592s19.662-4.034 26.586-10.608l335.745-335.746c6.627-6.62 10.726-15.768 10.726-25.874s-4.099-19.255-10.726-25.874z" />
<glyph unicode="&#xe904;" glyph-name="005_arrow_last" data-tags="arrow_last" d="M833.17 434.798l-335.762-335.762c-6.623-6.619-15.771-10.712-25.874-10.712-20.216 0-36.605 16.388-36.605 36.605 0 10.113 4.101 19.268 10.73 25.892l310.565 310.565-310.601 310.565c-6.619 6.623-10.712 15.771-10.712 25.874 0 20.216 16.388 36.605 36.605 36.605 10.113 0 19.268-4.101 25.892-10.73l335.762-335.58c6.602-6.922 10.665-16.317 10.665-26.661s-4.063-19.739-10.679-26.676zM588.91 461.385c0.007-0.272 0.011-0.592 0.011-0.913 0-10.023-4.057-19.099-10.618-25.675l-335.798-335.762c-6.623-6.619-15.771-10.712-25.874-10.712-20.216 0-36.605 16.388-36.605 36.605 0 10.113 4.101 19.268 10.73 25.892l310.565 310.565-310.565 310.565c-6.622 6.622-10.717 15.77-10.717 25.874 0 20.209 16.383 36.592 36.592 36.592 10.105 0 19.252-4.096 25.874-10.717l335.799-335.579c6.563-6.576 10.621-15.653 10.621-25.678 0-0.371-0.006-0.741-0.017-1.109z" />
<glyph unicode="&#xe905;" glyph-name="006_arrow_first" data-tags="arrow_first" d="M522.094 461.385l310.565-310.565c6.63-6.625 10.73-15.78 10.73-25.893 0-20.216-16.388-36.605-36.605-36.605-10.104 0-19.251 4.093-25.874 10.712l-335.762 335.762c-6.558 6.908-10.592 16.267-10.592 26.569s4.034 19.662 10.608 26.586l335.746 335.745c6.622 6.622 15.77 10.717 25.874 10.717 20.209 0 36.592-16.383 36.592-36.592 0-10.105-4.096-19.252-10.717-25.874zM267.227 461.385l310.565-310.565c6.63-6.625 10.73-15.78 10.73-25.893 0-20.216-16.388-36.605-36.605-36.605-10.104 0-19.251 4.093-25.874 10.712l-335.799 335.762c-6.55 6.911-10.578 16.27-10.578 26.569s4.028 19.658 10.595 26.587l335.746 335.745c6.622 6.622 15.77 10.717 25.874 10.717 20.209 0 36.592-16.383 36.592-36.592 0-10.105-4.096-19.252-10.717-25.874z" />
<glyph unicode="&#xe906;" glyph-name="007_arrow2_right" data-tags="arrow2_right" d="M858.88 434.798l-262.656-262.619c-6.623-6.619-15.771-10.712-25.874-10.712-20.216 0-36.605 16.388-36.605 36.605 0 10.113 4.101 19.268 10.73 25.892l204.288 204.252h-557.824c-20.198 0-36.571 16.374-36.571 36.571s16.374 36.571 36.571 36.571h550.949l-197.486 197.486c-6.608 6.621-10.694 15.762-10.694 25.856 0 20.216 16.388 36.605 36.605 36.605 10.122 0 19.284-4.108 25.91-10.748l262.657-262.437c6.61-6.918 10.679-16.314 10.679-26.661s-4.068-19.742-10.693-26.675z" />
<glyph unicode="&#xe907;" glyph-name="008_arrow2_left" data-tags="arrow2_left" d="M840.777 428.434h-571.246l209.189-199.205c6.754-6.318 10.963-15.285 10.963-25.234s-4.209-18.916-10.943-25.216c-6.939-6.487-16.263-10.459-26.515-10.459s-19.577 3.972-26.518 10.462l-268.888 255.98c-6.649 6.623-10.763 15.787-10.763 25.911s4.114 19.288 10.761 25.91l268.911 256.001c6.916 6.477 16.241 10.455 26.496 10.455s19.58-3.978 26.518-10.475c6.732-6.298 10.941-15.265 10.941-25.214s-4.209-18.916-10.943-25.216l-202.15-192.311h564.187c0.482 0.023 1.048 0.037 1.616 0.037 19.733 0 35.73-15.997 35.73-35.73s-15.997-35.73-35.73-35.73c-0.568 0-1.134 0.013-1.696 0.040z" />
<glyph unicode="&#xe908;" glyph-name="009_arrow2_up" data-tags="arrow2_up" d="M794.587 494.080c-6.336-6.759-15.321-10.971-25.289-10.971s-18.953 4.211-25.272 10.952l-192.895 202.149v-564.187c0.023-0.483 0.037-1.049 0.037-1.618 0-19.774-16.030-35.803-35.803-35.803s-35.803 16.030-35.803 35.803c0 0.569 0.013 1.135 0.040 1.697l-0.003 571.166-199.607-209.189c-6.336-6.759-15.321-10.971-25.289-10.971s-18.953 4.211-25.272 10.952c-6.502 6.931-10.486 16.258-10.486 26.515s3.983 19.583 10.488 26.517l256.602 268.925c6.629 6.682 15.814 10.818 25.966 10.818s19.337-4.136 25.963-10.815l256.624-268.912c6.495-6.915 10.485-16.249 10.485-26.514s-3.99-19.599-10.505-26.535z" />
<glyph unicode="&#xe909;" glyph-name="010_arrow2_down" data-tags="arrow2_down" d="M794.587 427.52c-6.336 6.759-15.321 10.971-25.289 10.971s-18.953-4.211-25.272-10.952l-192.895-202.149v564.187c0.023 0.483 0.037 1.049 0.037 1.618 0 19.774-16.030 35.803-35.803 35.803s-35.803-16.030-35.803-35.803c0-0.569 0.013-1.135 0.040-1.697l-0.003-571.166-199.607 209.189c-6.336 6.759-15.321 10.971-25.289 10.971s-18.953-4.211-25.272-10.952c-6.502-6.931-10.486-16.258-10.486-26.515s3.983-19.583 10.488-26.517l256.602-268.925c6.629-6.682 15.814-10.818 25.966-10.818s19.337 4.136 25.963 10.815l256.624 268.912c6.495 6.915 10.485 16.249 10.485 26.514s-3.99 19.599-10.505 26.535z" />
<glyph unicode="&#xe90a;" glyph-name="011_scale_up" data-tags="scale_up" d="M73.618 58.514c0 19.858 0 272.786 0 292.571 0 19.875 16.112 35.986 35.986 35.986s35.986-16.112 35.986-35.986v-211.383l265.070 265.070c6.514 6.514 15.513 10.543 25.454 10.543 19.881 0 35.997-16.116 35.997-35.997 0-9.94-4.029-18.94-10.543-25.454l-260.425-260.279h201.947c19.875 0 35.986-16.112 35.986-35.986s-16.112-35.986-35.986-35.986h-292.571c-0.017 0-0.038 0-0.058 0-10.116 0-19.25 4.204-25.75 10.96-6.844 6.532-11.092 15.709-11.092 25.878 0 0.022 0 0.044 0 0.066zM950.382 863.086v-292.571c0-19.875-16.112-35.986-35.986-35.986s-35.986 16.112-35.986 35.986v211.383l-265.070-265.070c-6.514-6.514-15.513-10.543-25.454-10.543-19.881 0-35.997 16.116-35.997 35.997 0 9.94 4.029 18.94 10.543 25.454l260.425 260.279h-202.057c-19.875 0-35.986 16.112-35.986 35.986s16.112 35.986 35.986 35.986h292.571c0.017 0 0.038 0 0.058 0 10.116 0 19.25-4.204 25.75-10.96 6.893-6.518 11.19-15.726 11.202-25.938z" />
<glyph unicode="&#xe90b;" glyph-name="012_scale_down" data-tags="scale_down" d="M474.953 387.657v-292.571c0-19.875-16.112-35.986-35.986-35.986s-35.986 16.112-35.986 35.986v211.383l-265.070-265.070c-6.514-6.514-15.513-10.543-25.454-10.543-19.881 0-35.997 16.116-35.997 35.997 0 9.94 4.029 18.94 10.543 25.454l260.425 260.279h-202.057c-19.875 0-35.986 16.112-35.986 35.986s16.112 35.986 35.986 35.986h292.571c20.174-0.523 36.416-16.72 37.009-36.845zM549.047 533.943v292.571c0 19.875 16.112 35.986 35.986 35.986s35.986-16.112 35.986-35.986v-211.383l265.070 265.070c6.514 6.514 15.513 10.543 25.454 10.543 19.881 0 35.997-16.116 35.997-35.997 0-9.94-4.029-18.94-10.543-25.454l-260.425-260.279h201.947c19.875 0 35.986-16.112 35.986-35.986s-16.112-35.986-35.986-35.986h-292.571c-20.126 0.581-36.309 16.756-36.899 36.845z" />
<glyph unicode="&#xe90c;" glyph-name="013_mark_plus" data-tags="mark_plus" d="M840.046 424.229h-291.474v-291.913c0-20.198-16.374-36.571-36.571-36.571s-36.571 16.374-36.571 36.571v291.913h-291.913c-20.198 0-36.571 16.374-36.571 36.571s16.374 36.571 36.571 36.571h291.913v291.511c0 20.198 16.374 36.571 36.571 36.571s36.571-16.374 36.571-36.571v-291.438h291.474c20.218 0 36.608-16.39 36.608-36.608s-16.39-36.608-36.608-36.608z" />
<glyph unicode="&#xe90d;" glyph-name="014_mark_minus" data-tags="mark_minus" d="M183.515 424.229c-20.198 0-36.571 16.374-36.571 36.571s16.374 36.571 36.571 36.571h656.53c20.198 0 36.571-16.374 36.571-36.571s-16.374-36.571-36.571-36.571h-656.53z" />
<glyph unicode="&#xe90e;" glyph-name="015_mark_times" data-tags="mark_times" d="M563.749 460.8l231.973-231.973c6.661-6.638 10.782-15.821 10.782-25.966 0-20.245-16.412-36.656-36.656-36.656-10.1 0-19.245 4.085-25.875 10.692l-231.972 232.154-232.265-232.155c-6.622-6.622-15.77-10.717-25.874-10.717-20.209 0-36.592 16.383-36.592 36.592 0 10.105 4.096 19.252 10.717 25.874l232.265 232.265-232.265 232.155c-6.622 6.622-10.717 15.77-10.717 25.874 0 20.209 16.383 36.592 36.592 36.592 10.105 0 19.252-4.096 25.874-10.717l232.265-232.229 231.936 231.936c6.622 6.622 15.77 10.717 25.874 10.717 20.209 0 36.592-16.383 36.592-36.592 0-10.105-4.096-19.252-10.717-25.874z" />
<glyph unicode="&#xe90f;" glyph-name="016_mark_divide" data-tags="mark_divide" d="M279.735 177.481c-6.622-6.622-15.77-10.717-25.874-10.717-20.209 0-36.592 16.383-36.592 36.592 0 10.105 4.096 19.252 10.717 25.874l515.95 515.877c6.622 6.622 15.77 10.717 25.874 10.717 20.209 0 36.592-16.383 36.592-36.592 0-10.105-4.096-19.252-10.717-25.874z" />
<glyph unicode="&#xe910;" glyph-name="017_list_default" data-tags="list_default" d="M876.617 425.362h-729.673c-20.198 0-36.571 16.374-36.571 36.571s16.374 36.571 36.571 36.571h729.673c20.198 0 36.571-16.374 36.571-36.571s-16.374-36.571-36.571-36.571zM876.617 643.255h-729.673c-20.198 0-36.571 16.374-36.571 36.571s16.374 36.571 36.571 36.571h729.673c20.198 0 36.571-16.374 36.571-36.571s-16.374-36.571-36.571-36.571zM146.944 278.345h729.673c20.198 0 36.571-16.374 36.571-36.571s-16.374-36.571-36.571-36.571h-729.673c-20.198 0-36.571 16.374-36.571 36.571s16.374 36.571 36.571 36.571z" />
<glyph unicode="&#xe911;" glyph-name="018_align_all" data-tags="align_all" d="M840.046 515.255h-656.53c-20.198 0-36.571 16.374-36.571 36.571s16.374 36.571 36.571 36.571h656.53c20.198 0 36.571-16.374 36.571-36.571s-16.374-36.571-36.571-36.571zM840.046 332.398h-656.53c-20.198 0-36.571 16.374-36.571 36.571s16.374 36.571 36.571 36.571h656.53c20.198 0 36.571-16.374 36.571-36.571s-16.374-36.571-36.571-36.571zM840.046 149.541h-656.53c-20.198 0-36.571 16.374-36.571 36.571s16.374 36.571 36.571 36.571h656.53c20.198 0 36.571-16.374 36.571-36.571s-16.374-36.571-36.571-36.571zM840.046 698.112h-656.53c-20.198 0-36.571 16.374-36.571 36.571s16.374 36.571 36.571 36.571h656.53c20.198 0 36.571-16.374 36.571-36.571s-16.374-36.571-36.571-36.571z" />
<glyph unicode="&#xe912;" glyph-name="019_align_left" data-tags="align_left" d="M657.189 515.255h-473.673c-20.198 0-36.571 16.374-36.571 36.571s16.374 36.571 36.571 36.571h473.673c20.198 0 36.571-16.374 36.571-36.571s-16.374-36.571-36.571-36.571zM840.046 332.398h-656.53c-20.198 0-36.571 16.374-36.571 36.571s16.374 36.571 36.571 36.571h656.53c20.198 0 36.571-16.374 36.571-36.571s-16.374-36.571-36.571-36.571zM657.189 149.541h-473.673c-20.198 0-36.571 16.374-36.571 36.571s16.374 36.571 36.571 36.571h473.673c20.198 0 36.571-16.374 36.571-36.571s-16.374-36.571-36.571-36.571zM840.046 698.112h-656.53c-20.198 0-36.571 16.374-36.571 36.571s16.374 36.571 36.571 36.571h656.53c20.198 0 36.571-16.374 36.571-36.571s-16.374-36.571-36.571-36.571z" />
<glyph unicode="&#xe913;" glyph-name="020_align_right" data-tags="align_right" d="M366.336 515.255h475.209c20.198 0 36.571 16.374 36.571 36.571s-16.374 36.571-36.571 36.571h-475.209c-20.198 0-36.571-16.374-36.571-36.571s16.374-36.571 36.571-36.571zM182.857 332.398h658.688c20.198 0 36.571 16.374 36.571 36.571s-16.374 36.571-36.571 36.571h-658.688c-20.198 0-36.571-16.374-36.571-36.571s16.374-36.571 36.571-36.571zM366.299 149.541h475.246c20.198 0 36.571 16.374 36.571 36.571s-16.374 36.571-36.571 36.571h-475.209c-20.198 0-36.571-16.374-36.571-36.571s16.374-36.571 36.571-36.571zM182.857 698.112h658.688c20.198 0 36.571 16.374 36.571 36.571s-16.374 36.571-36.571 36.571h-658.688c-20.198 0-36.571-16.374-36.571-36.571s16.374-36.571 36.571-36.571z" />
<glyph unicode="&#xe914;" glyph-name="021_align_center" data-tags="align_center" d="M293.193 515.255h438.638c20.198 0 36.571 16.374 36.571 36.571s-16.374 36.571-36.571 36.571h-438.638c-20.198 0-36.571-16.374-36.571-36.571s16.374-36.571 36.571-36.571zM182.857 332.398h658.688c20.198 0 36.571 16.374 36.571 36.571s-16.374 36.571-36.571 36.571h-658.688c-20.198 0-36.571-16.374-36.571-36.571s16.374-36.571 36.571-36.571zM293.157 149.541h438.674c20.198 0 36.571 16.374 36.571 36.571s-16.374 36.571-36.571 36.571h-438.638c-20.198 0-36.571-16.374-36.571-36.571s16.374-36.571 36.571-36.571zM182.857 698.112h658.688c20.198 0 36.571 16.374 36.571 36.571s-16.374 36.571-36.571 36.571h-658.688c-20.198 0-36.571-16.374-36.571-36.571s16.374-36.571 36.571-36.571z" />
<glyph unicode="&#xe915;" glyph-name="022_newwindow" data-tags="newwindow" d="M913.554 824.795v-218.734c0-20.198-16.374-36.571-36.571-36.571s-36.571 16.374-36.571 36.571v130.45l-301.495-301.312c-6.622-6.622-15.77-10.717-25.874-10.717-20.209 0-36.592 16.383-36.592 36.592 0 10.105 4.096 19.252 10.717 25.874l301.714 301.714h-130.706c-20.198 0-36.571 16.374-36.571 36.571s16.374 36.571 36.571 36.571h218.843c20.198 0 36.571-16.374 36.571-36.571s-0.037-0.293-0.037-0.439zM476.526 751.653h-292.571v-619.191h621.202v291.767c0 20.198 16.374 36.571 36.571 36.571s36.571-16.374 36.571-36.571v-326.29c-0.622-20.619-16.896-37.29-37.337-38.541l-692.994-0.005c-0.041 0-0.090 0-0.138 0-15.227 0-28.281 9.307-33.784 22.542-2.213 4.333-3.633 9.679-3.746 15.346l-0.001 690.871c0.45 20.465 17.139 36.885 37.667 36.901h328.559c20.218 0 36.608-16.39 36.608-36.608s-16.39-36.608-36.608-36.608z" />
<glyph unicode="&#xe916;" glyph-name="023_trash" data-tags="trash" d="M914.615 680.119h-71.461c0-0.878 0.512-1.646 0.512-2.523 0-20.187-2.889-597.211-2.889-617.435 0-0.512-0.256-0.914-0.293-1.426v0c0-20.198-16.374-36.571-36.571-36.571h-583.387c-0.032 0-0.071 0-0.109 0-15.255 0-28.329 9.34-33.814 22.614-2.212 4.334-3.632 9.68-3.745 15.347-0.001 20.26-0.586 597.284-0.586 617.472 0 0.914 0.439 1.646 0.512 2.523h-73.070c-20.198 0-36.571 16.374-36.571 36.571s16.374 36.571 36.571 36.571h804.571c0.049 0 0.107 0 0.165 0 20.198 0 36.572-16.374 36.572-36.572 0-20.14-16.28-36.478-36.398-36.571zM255.707 680.119c0-0.878 0.512-1.646 0.512-2.523 0-17.408 0.183-458.24 0.183-582.29h511.195c0 124.050 2.487 564.882 2.487 582.29 0 0.914 0.439 1.646 0.512 2.523h-514.889zM658.286 167.643c-20.198 0-36.571 16.374-36.571 36.571v365.202c0 20.198 16.374 36.571 36.571 36.571s36.571-16.374 36.571-36.571v-365.202c0-20.198-16.374-36.571-36.571-36.571zM512 167.643c-20.198 0-36.571 16.374-36.571 36.571v365.202c0 20.198 16.374 36.571 36.571 36.571s36.571-16.374 36.571-36.571v-365.202c0-20.198-16.374-36.571-36.571-36.571zM365.714 167.643c-20.198 0-36.571 16.374-36.571 36.571v365.202c0 20.198 16.374 36.571 36.571 36.571s36.571-16.374 36.571-36.571v-365.202c0-20.198-16.374-36.571-36.571-36.571zM694.857 826.258h-365.714c-20.198 0-36.571 16.374-36.571 36.571s16.374 36.571 36.571 36.571h365.714c0.376 0.014 0.817 0.022 1.261 0.022 20.198 0 36.571-16.374 36.571-36.571s-16.374-36.571-36.571-36.571c-0.366 0-0.731 0.005-1.095 0.016z" />
<glyph unicode="&#xe917;" glyph-name="024_view_big" data-tags="view_big" d="M470.881 904.229c-0.154 0-0.309 0-0.463 0-222.073 0-402.119-179.943-402.286-401.989 0-0.026 0-0.051 0-0.077 0-222.055 180.011-402.066 402.066-402.066s402.066 180.011 402.066 402.066c0 221.824-179.636 401.691-401.408 402.066zM470.857 831.086c181.67-0.146 328.887-147.452 328.887-329.143 0-181.781-147.362-329.143-329.143-329.143s-329.143 147.362-329.143 329.143c0 0 0 0 0 0 0 181.781 147.362 329.143 329.143 329.143 0.090 0 0.18 0 0.27 0zM752.969 219.867c6.618 6.616 15.759 10.708 25.856 10.708s19.238-4.092 25.856-10.708l139.995-139.995c6.352-6.57 10.266-15.531 10.266-25.407 0-20.198-16.374-36.571-36.571-36.571-9.875 0-18.837 3.914-25.417 10.276l-139.985 139.986c-6.67 6.627-10.799 15.805-10.799 25.947 0 10.088 4.085 19.222 10.69 25.838zM655.433 466.249h-148.005v-147.895c0-20.198-16.374-36.571-36.571-36.571s-36.571 16.374-36.571 36.571v147.968h-147.529c-20.198 0-36.571 16.374-36.571 36.571s16.374 36.571 36.571 36.571h147.529v145.627c0 20.198 16.374 36.571 36.571 36.571s36.571-16.374 36.571-36.571v-145.554h148.005c20.194-0.031 36.553-16.409 36.553-36.608 0-20.218-16.39-36.608-36.608-36.608-0.019 0-0.039 0-0.058 0z" />
<glyph unicode="&#xe918;" glyph-name="025_view_small" data-tags="view_small" d="M470.881 904.229c-0.154 0-0.309 0-0.463 0-222.073 0-402.119-179.943-402.286-401.989 0-0.026 0-0.051 0-0.077 0-222.055 180.011-402.066 402.066-402.066s402.066 180.011 402.066 402.066c0 221.824-179.636 401.691-401.408 402.066zM470.857 831.086c181.67-0.146 328.887-147.452 328.887-329.143 0-181.781-147.362-329.143-329.143-329.143s-329.143 147.362-329.143 329.143c0 0 0 0 0 0 0 181.781 147.362 329.143 329.143 329.143 0.090 0 0.18 0 0.27 0zM286.757 466.322c-20.198 0-36.571 16.374-36.571 36.571s16.374 36.571 36.571 36.571h368.567c20.198 0 36.571-16.374 36.571-36.571s-16.374-36.571-36.571-36.571h-368.567zM752.859 219.941c6.618 6.616 15.759 10.708 25.856 10.708s19.238-4.092 25.856-10.708l139.995-139.995c6.352-6.57 10.266-15.531 10.266-25.407 0-20.198-16.374-36.571-36.571-36.571-9.875 0-18.837 3.914-25.417 10.276l-139.985 139.986c-6.616 6.618-10.708 15.759-10.708 25.856s4.092 19.238 10.708 25.856z" />
<glyph unicode="&#xe919;" glyph-name="026_search" data-tags="search" d="M470.881 904.229c-0.154 0-0.309 0-0.463 0-222.073 0-402.119-179.943-402.286-401.989 0-0.026 0-0.051 0-0.077 0-222.055 180.011-402.066 402.066-402.066s402.066 180.011 402.066 402.066c0 221.824-179.636 401.691-401.408 402.066zM470.857 831.086c181.67-0.146 328.887-147.452 328.887-329.143 0-181.781-147.362-329.143-329.143-329.143s-329.143 147.362-329.143 329.143c0 0 0 0 0 0 0 181.781 147.362 329.143 329.143 329.143 0.090 0 0.18 0 0.27 0zM752.969 219.867c6.618 6.616 15.759 10.708 25.856 10.708s19.238-4.092 25.856-10.708l139.995-139.995c6.352-6.57 10.266-15.531 10.266-25.407 0-20.198-16.374-36.571-36.571-36.571-9.875 0-18.837 3.914-25.417 10.276l-139.985 139.986c-6.67 6.627-10.799 15.805-10.799 25.947 0 10.088 4.085 19.222 10.69 25.838z" />
<glyph unicode="&#xe91a;" glyph-name="027_setting" data-tags="setting" d="M916.992 545.646l-44.654-63.269c0.402-7.314 1.499-14.409 1.499-21.943s-1.097-14.629-1.536-21.943l44.69-63.671c20.698-12.849 34.274-35.453 34.274-61.228 0-12.939-3.421-25.078-9.408-35.564l-61.986-110.532c-11.63-21.157-33.768-35.257-59.199-35.257-12.66 0-24.503 3.494-34.619 9.57l-74.886 8.132c46.177 33.335 7.605 1.149-36.374-22.204l-32.234-71.273c0.006-0.329 0.009-0.716 0.009-1.105 0-38.019-30.534-68.906-68.417-69.478l-124.141-0.001c-37.937 0.572-68.47 31.459-68.47 69.478 0 0.388 0.003 0.776 0.010 1.163l-30.721 70.744c48.773-25.278 2.364-5.093-37.989 23.152l-74.798-9.072c-9.811-5.907-21.655-9.401-34.314-9.401-25.431 0-47.569 14.1-59.023 34.908l-62.237 111.087c-5.802 10.133-9.223 22.272-9.223 35.211 0 25.775 13.577 48.379 33.969 61.051l45.105 63.994c-0.439 7.314-1.536 14.629-1.536 22.235s1.097 14.629 1.536 21.943l-44.8 63.634c-20.698 12.849-34.274 35.453-34.274 61.228 0 12.939 3.421 25.078 9.408 35.564l61.876 110.568c11.63 21.157 33.768 35.257 59.199 35.257 12.66 0 24.503-3.494 34.619-9.57l75.179-7.876c-46.773-33.882-8.512-1.842 35.113 21.475l32.909 72.331c-0.006 0.329-0.009 0.716-0.009 1.105 0 38.019 30.534 68.906 68.417 69.478l124.214 0.001c37.937-0.572 68.47-31.459 68.47-69.478 0-0.388-0.003-0.776-0.010-1.163l30.538-70.89c-47.46 24.599-0.817 4.32 39.699-24.099l73.599 9.032c9.811 5.907 21.655 9.401 34.314 9.401 25.431 0 47.569-14.1 59.023-34.908l62.347-111.233c5.822-10.147 9.256-22.307 9.256-35.27 0-25.834-13.639-48.482-34.109-61.138zM873.765 630.565l-38.327 68.462c-4.488 8.148-13.020 13.577-22.819 13.577-4.885 0-9.455-1.349-13.357-3.695l-96.504-14.344c5.612 1.447-38.504 34.668-89.409 54.177l-37.274 92.986c0.002 0.121 0.003 0.263 0.003 0.405 0 14.665-11.775 26.579-26.387 26.804h-76.821c-14.632-0.225-26.408-12.139-26.408-26.804 0-0.142 0.001-0.285 0.003-0.427l-36.060-93.528c0.679 5.863-48.566-18.605-88.317-53.603l-96.954 14.91c-3.785 2.28-8.355 3.629-13.24 3.629-9.8 0-18.331-5.429-22.752-13.443l-38.395-68.742c-2.242-3.91-3.564-8.595-3.564-13.588 0-9.938 5.237-18.653 13.101-23.537l60.168-77.782c-3.382-16.727-5.317-35.956-5.317-55.636 0-18.848 1.775-37.282 5.168-55.143l-60.596-77.199c-7.982-4.951-13.219-13.667-13.219-23.605 0-4.994 1.322-9.679 3.636-13.724l38.255-68.326c4.488-8.148 13.020-13.577 22.819-13.577 4.885 0 9.455 1.349 13.357 3.695l96.468 14.892c-6.669-0.434 37.055-33.889 87.598-53.797l38.134-93.732c-0.002-0.121-0.003-0.263-0.003-0.405 0-14.665 11.775-26.579 26.387-26.804h76.821c14.632 0.225 26.408 12.139 26.408 26.804 0 0.142-0.001 0.285-0.003 0.427l34.743 91.992c2.629-4.825 52.813 20.23 93.070 56.171l95.894-15.138c3.785-2.28 8.355-3.629 13.24-3.629 9.8 0 18.331 5.429 22.752 13.443l38.577 68.522c2.242 3.91 3.564 8.595 3.564 13.588 0 9.938-5.237 18.653-13.101 23.537l-60.278 78.88c3.059 15.965 4.808 34.327 4.808 53.097 0 19.611-1.91 38.776-5.554 57.319l60.211 75.696c7.906 4.966 13.084 13.639 13.084 23.521 0 5.028-1.34 9.742-3.683 13.806zM512.453 629.905c-91.067-1.41-164.457-75.672-164.457-167.074 0-0.855 0.006-1.709 0.018-2.433 0.001-93.657 75.925-169.581 169.582-169.581s169.582 75.924 169.582 169.582c0 93.657-75.924 169.582-169.582 169.582-1.762 0-3.517-0.027-5.010-0.074zM512.585 562.066c0.894 0.028 1.944 0.044 2.999 0.044 56.19 0 101.742-45.551 101.742-101.742s-45.551-101.742-101.742-101.742c-56.188 0-101.737 45.547-101.742 101.734-0.007 0.439-0.011 0.956-0.011 1.474 0 54.839 44.035 99.393 98.675 100.23z" />
<glyph unicode="&#xe91b;" glyph-name="028_reflash" data-tags="reflash" d="M709.047 151.333l-19.163 71.57c72.192 54.441 118.373 140.046 118.373 236.436 0 148.283-109.288 271.040-251.71 292.118l54.636-82.456c3.97-5.766 6.34-12.901 6.34-20.59 0-20.215-16.388-36.603-36.603-36.603-12.527 0-23.584 6.293-30.182 15.889l-99.482 146.263c3.271-2.873-1.429 0.586-5.075 4.955-4.031 5.827-6.412 12.973-6.412 20.674 0 12.525 6.297 23.58 15.897 30.171l151.749 103.285c5.752 3.935 12.86 6.283 20.517 6.283 20.234 0 36.638-16.403 36.638-36.638 0-12.578-6.338-23.675-15.995-30.273l-78.096-53.073c175.374-28.576 307.61-178.959 307.61-360.227 0-128.811-66.775-242.026-167.597-306.917zM473.271 292.827l99.401-146.066c-3.264 2.868 1.432-0.589 5.075-4.955 4.020-5.821 6.395-12.958 6.395-20.649 0-12.518-6.289-23.567-15.881-30.16l-151.749-103.285c-5.766-3.97-12.901-6.34-20.59-6.34-20.215 0-36.603 16.388-36.603 36.603 0 12.527 6.293 23.584 15.889 30.182l75.973 51.719c-173.786 30.115-304.277 179.768-304.277 359.899 0 129.504 67.448 243.255 169.132 308.040l20.64-70.654c-73.187-54.345-120.095-140.506-120.095-237.624 0-148.326 109.42-271.096 251.944-291.994l-55.78 83.922c-4.001 5.788-6.392 12.955-6.392 20.681 0 20.244 16.411 36.654 36.654 36.654 12.518 0 23.57-6.275 30.183-15.851z" />
<glyph unicode="&#xe91c;" glyph-name="029_doc_single" data-tags="doc_single" d="M874.423 44.91c-5.401-13.722-18.542-23.297-33.929-23.369h-656.539c-0.024 0-0.051 0-0.079 0-15.283 0-28.376 9.374-33.844 22.687-2.212 4.335-3.632 9.681-3.745 15.348l-0.001 803.255c0.45 20.465 17.139 36.885 37.667 36.901h401.702c10.414-0.022 19.848-4.485 26.457-11.607 0.35-0.352 0.789-0.425 1.118-0.754l249.088-249.088c-2.705 3.536 0.851-0.437 3.384-5.050 7.49-6.722 12.2-16.316 12.268-27.011v-546.097c-0.016-5.355-1.324-10.683-3.642-15.427zM548.571 826.514h-328.741v-731.758h584.741v474.368h-218.587c-15.123 0.004-28.103 9.191-33.665 22.289-2.209 4.322-3.631 9.672-3.747 15.343l-0.001 219.758zM621.714 642.341h132.754l-132.754 132.754v-132.571z" />
<glyph unicode="&#xe91d;" glyph-name="030_doc_add" data-tags="doc_add" d="M874.423 44.91c-5.401-13.722-18.542-23.297-33.929-23.369h-656.539c-0.024 0-0.051 0-0.079 0-15.283 0-28.376 9.374-33.844 22.687-2.212 4.335-3.632 9.681-3.745 15.348l-0.001 803.255c0.45 20.465 17.139 36.885 37.667 36.901h401.702c10.414-0.022 19.848-4.485 26.457-11.607 0.35-0.352 0.789-0.425 1.118-0.754l249.088-249.088c-2.705 3.536 0.851-0.437 3.384-5.050 7.49-6.722 12.2-16.316 12.268-27.011v-546.097c-0.016-5.355-1.324-10.683-3.642-15.427zM548.571 826.514h-328.741v-731.758h584.741v474.368h-218.587c-15.123 0.004-28.103 9.191-33.665 22.289-2.209 4.322-3.631 9.672-3.747 15.343l-0.001 219.758zM621.714 642.341h132.754l-132.754 132.754v-132.571zM658.286 313.381h-109.714v-109.714c0-20.198-16.374-36.571-36.571-36.571s-36.571 16.374-36.571 36.571v109.714h-109.714c-20.198 0-36.571 16.374-36.571 36.571s16.374 36.571 36.571 36.571h109.714v109.714c0 20.198 16.374 36.571 36.571 36.571s36.571-16.374 36.571-36.571v-109.714h109.714c20.198 0 36.571-16.374 36.571-36.571s-16.374-36.571-36.571-36.571z" />
<glyph unicode="&#xe91e;" glyph-name="031_doc_remove" data-tags="doc_remove" d="M874.423 44.91c-5.401-13.722-18.542-23.297-33.929-23.369h-656.539c-0.024 0-0.051 0-0.079 0-15.283 0-28.376 9.374-33.844 22.687-2.212 4.335-3.632 9.681-3.745 15.348l-0.001 803.255c0.45 20.465 17.139 36.885 37.667 36.901h401.702c10.414-0.022 19.848-4.485 26.457-11.607 0.35-0.352 0.789-0.425 1.118-0.754l249.088-249.088c-2.705 3.536 0.851-0.437 3.384-5.050 7.49-6.722 12.2-16.316 12.268-27.011v-546.097c-0.016-5.355-1.324-10.683-3.642-15.427zM548.571 826.514h-328.741v-731.758h584.741v474.368h-218.587c-15.123 0.004-28.103 9.191-33.665 22.289-2.209 4.322-3.631 9.672-3.747 15.343l-0.001 219.758zM621.714 642.341h132.754l-132.754 132.754v-132.571zM365.714 313.381c-20.198 0-36.571 16.374-36.571 36.571s16.374 36.571 36.571 36.571h292.571c20.198 0 36.571-16.374 36.571-36.571s-16.374-36.571-36.571-36.571h-292.571z" />
<glyph unicode="&#xe91f;" glyph-name="032_doc_multi" data-tags="doc_multi" d="M947.566 44.91c-5.401-13.722-18.542-23.297-33.929-23.369h-656.539c-0.024 0-0.051 0-0.079 0-15.283 0-28.376 9.374-33.844 22.687-2.212 4.335-3.632 9.681-3.745 15.348l-0.001 656.969c0.45 20.465 17.139 36.885 37.667 36.901h365.131c10.414-0.022 19.848-4.485 26.457-11.607 0.35-0.316 0.789-0.425 1.118-0.754l285.659-285.659c-2.71 3.542 0.848-0.433 3.384-5.050 7.49-6.723 12.2-16.316 12.269-27.011v-363.24c-0.016-5.355-1.324-10.683-3.642-15.427zM658.651 628.846v-169.179h169.326zM878.080 386.304h-255.525c-15.123 0.004-28.103 9.191-33.665 22.289-2.199 4.294-3.625 9.638-3.747 15.304l-0.001 256.332h-292.169v-585.472h584.741v291.547zM475.941 826.514h-329.143v-620.617c0-20.198-16.374-36.571-36.571-36.571s-36.571 16.374-36.571 36.571v656.933c0.44 20.284 16.844 36.6 37.128 36.9h365.158c20.218 0 36.608-16.39 36.608-36.608s-16.39-36.608-36.608-36.608z" />
<glyph unicode="&#xe920;" glyph-name="033_human" data-tags="human" d="M914.286 21.943h-61.879c0 0.108 0 0.236 0 0.365 0 134.896-77.955 251.586-191.272 307.476-44.318-23.438-95.041-37.791-149.116-37.791s-104.798 14.353-148.567 39.457c-113.887-57.55-191.858-174.249-191.858-309.16 0-0.122 0-0.244 0-0.366l-61.879 0.019c0 0.129 0 0.282 0 0.435 0 147.891 79.256 277.27 197.611 347.981-59 56.426-97.039 135.967-97.039 224.393 0 166.632 135.082 301.714 301.714 301.714s301.714-135.082 301.714-301.714c0-88.425-38.039-167.966-98.647-223.151 119.963-71.953 199.219-201.332 199.219-349.222 0-0.153 0-0.306 0-0.459zM746.679 595.822c-0.912 128.916-105.63 233.070-234.673 233.070-129.61 0-234.679-105.069-234.679-234.679 0-129.608 105.066-234.676 234.673-234.679 129.708 0.457 234.681 105.711 234.681 235.482 0 0.283-0.001 0.567-0.002 0.85z" />
<glyph unicode="&#xe921;" glyph-name="034_pencel" data-tags="pencel" d="M888.21 577.243l-490.898-490.935c-0.738-1.662-6.823-6.061-13.863-8.34-4.402-2.214-9.758-3.627-15.435-3.728h-201.761c-11.053 0.056-21.028 5.206-27.597 13.247-8.088 6.557-13.289 16.516-13.4 27.694v201.856c0.026 10.292 4.399 19.64 11.393 26.242 0.603 0.711 0.859 1.589 1.517 2.284l490.825 491.008c6.884 6.314 16.099 10.184 26.218 10.184 10.476 0 19.983-4.147 26.969-10.89l204.789-204.789c6.936-7.115 11.214-16.851 11.214-27.585 0-10.092-3.782-19.302-10.006-26.288zM655.214 759.186l-456.741-456.741v-154.88h156.526l455.936 455.899z" />
<glyph unicode="&#xe922;" glyph-name="035_key_lock" data-tags="key_lock" d="M830.757 34.231c-6.558-7.39-16.147-12.083-26.833-12.142h-583.398c-0.024 0-0.051 0-0.079 0-15.283 0-28.376 9.374-33.844 22.687-2.212 4.335-3.632 9.681-3.745 15.348l-0.001 437.54c0 20.198 16.374 36.571 36.571 36.571 0.219 0 0.402 0 0.622 0h73.070v145.225c0 0.256 0 0.512 0 0.768h-0.549c0 0.11 0 0.24 0 0.37 0 120.763 97.898 218.661 218.661 218.661 119.363 0 216.388-95.641 218.621-214.47-0.099 0.6 0.642-2.223 1.010-5.161l0.017-145.466h73.143c0.256 0 0.475 0 0.768 0 20.198 0 36.571-16.374 36.571-36.571v-437.431c0-0.052 0-0.114 0-0.175 0-10.046-4.051-19.147-10.608-25.756zM658.286 680.229c-1.304 80.112-66.553 144.553-146.853 144.553s-145.548-64.442-146.851-144.431l0.547-0.122c0-0.256 0-0.512 0-0.768v-145.298h293.413v145.298c0 0.256 0 0.512 0 0.768h-0.256zM768.329 460.8h-512v-365.714h512v365.714zM512.329 386.743c0.016 0 0.036 0 0.055 0 41.85 0 75.776-33.926 75.776-75.776 0-28.79-16.055-53.83-39.701-66.654l-0.4-39.513c-0.638-19.435-16.546-34.947-36.078-34.947s-35.439 15.512-36.076 34.889l-0.002 39.702c-24.112 12.994-40.222 38.063-40.222 66.896 0 41.83 33.91 75.739 75.739 75.739 0.345 0 0.69-0.002 1.034-0.007z" />
<glyph unicode="&#xe923;" glyph-name="036_key_unlock" data-tags="key_unlock" d="M830.757 34.231c-6.558-7.39-16.147-12.083-26.833-12.142h-583.398c-0.024 0-0.051 0-0.079 0-15.283 0-28.376 9.374-33.844 22.687-2.212 4.335-3.632 9.681-3.745 15.348l-0.001 437.54c0 20.198 16.374 36.571 36.571 36.571 0.219 0 0.402 0 0.622 0h73.070v145.225c0 0.256 0 0.512 0 0.768h-0.549c0 0.165-0.001 0.36-0.001 0.556 0 120.581 97.75 218.331 218.331 218.331 94.783 0 175.459-60.397 205.642-144.805l-78.153-1.524c-25.607 44.682-73.018 74.298-127.347 74.298-80.349 0-145.568-64.779-146.28-144.96 0-0.982 0.512-1.75 0.512-2.701v-145.298h438.857c0.256 0 0.475 0 0.768 0 20.198 0 36.571-16.374 36.571-36.571v-437.394c0-0.019 0-0.042 0-0.065 0-10.101-4.095-19.245-10.715-25.864zM768.329 460.946h-512v-365.714h512v365.714zM548.133 244.224v-39.314c-0.638-19.435-16.546-34.947-36.078-34.947s-35.439 15.512-36.076 34.889l-0.002 39.592c-23.835 13.139-39.714 38.103-39.714 66.776 0 41.971 34.024 75.995 75.995 75.995s75.995-34.024 75.995-75.995c0-28.835-16.059-53.919-39.722-66.796z" />
<glyph unicode="&#xe924;" glyph-name="037_alert_line" data-tags="alert_line" d="M511.854 898.597c-241.607 0-437.467-195.861-437.467-437.467s195.861-437.467 437.467-437.467c241.607 0 437.467 195.861 437.467 437.467s-195.861 437.467-437.467 437.467zM511.854 826.514c201.877 0 365.531-163.654 365.531-365.531s-163.654-365.531-365.531-365.531c-201.877 0-365.531 163.654-365.531 365.531s163.654 365.531 365.531 365.531zM475.648 681.326c0 20.198 16.374 36.571 36.571 36.571s36.571-16.374 36.571-36.571v-221.879c0-20.198-16.374-36.571-36.571-36.571s-36.571 16.374-36.571 36.571v222.062zM512.622 352.183c30.62 0 55.442-24.822 55.442-55.442s-24.822-55.442-55.442-55.442c-30.62 0-55.442 24.822-55.442 55.442 0 0 0 0 0 0 0 0.011 0 0.024 0 0.037 0 30.607 24.802 55.421 55.404 55.442z" />
<glyph unicode="&#xe925;" glyph-name="038_alert_full" data-tags="alert_full" d="M511.854 898.597c-241.607 0-437.467-195.861-437.467-437.467s195.861-437.467 437.467-437.467c241.607 0 437.467 195.861 437.467 437.467s-195.861 437.467-437.467 437.467zM475.611 681.509c0 20.198 16.374 36.571 36.571 36.571s36.571-16.374 36.571-36.571v-221.879c0-20.198-16.374-36.571-36.571-36.571s-36.571 16.374-36.571 36.571v221.879zM512.585 352.366c30.62 0 55.442-24.822 55.442-55.442s-24.822-55.442-55.442-55.442c-30.62 0-55.442 24.822-55.442 55.442 0.083 30.557 24.874 55.296 55.442 55.296 0 0 0 0 0 0z" />
<glyph unicode="&#xe926;" glyph-name="039_star_line" data-tags="star_line" d="M840.302 70.949c-5.449 19.968-72.302 297.728-74.423 300.983l174.227 174.227c6.642 6.621 10.751 15.781 10.751 25.9 0 0.061 0 0.123 0 0.175l-0.023 0.186c-0.422 2.863-1.198 5.611-0.895 4.25-0.916 16.851-14.424 30.352-31.060 31.2-2.678 0.742-5.487 1.168-4.594 0.935h-233.070c-30.976 60.928-128.695 257.719-137.582 273.591-0.402 0.695-1.061 1.061-1.541 1.836-3.412 4.863-7.978 8.858-4.78 5.549-3.924 4.383-8.904 7.801-5.419 4.939-0.622 0.439-0.987 1.097-1.43 1.415-3.402 1.487-7.098 2.426-4.286 1.493-3.902 1.875-8.208 3.043-7.040 2.508-2.335 0.349-4.725 0.529-7.157 0.529s-4.822-0.181-7.129-0.544c-4.31-1.011-8.312-2.824-7.097-2.465-3.695-1.107-7.121-2.834-4.042-1.512-0.658-0.402-1.024-1.061-1.741-1.567-4.722-3.526-8.551-8.181-5.369-4.92-4.289-4.087-7.586-9.205-4.813-5.618-0.439-0.658-1.097-1.024-1.463-1.719-8.85-15.799-106.533-212.59-137.545-273.518h-233.070c-20.198 0-36.571-16.374-36.571-36.571v-0.012c0.062-10.115 4.173-19.269 10.715-25.844l177.115-177.481c-3.657-4.169-68.023-279.442-73.087-298.72-0.761-2.919-1.166-5.981-1.166-9.139 0-13.16 7.035-24.677 17.654-31.038 6.273-5.215 14.336-8.352 23.132-8.352 9.909 0 18.887 3.98 25.421 10.425 11.886 11.922 195.474 144.823 264.777 197.193 66.267-49.993 215.369-158.757 252.423-188.133 5.517-7.817 13.914-13.455 19.486-14.29 0.805-0.366 1.609-0.549 2.179-0.771 3.297-0.991 6.781-1.55 7.377-1.431 1.912-0.315 3.875-0.478 5.877-0.478 9.802 0 18.686 3.927 25.048 10.131 6.224 8.214 10.474 18.006 8.928 16.371 1.157 3.373 1.807 6.982 1.791 9.020 0 0.805 0 1.573-0.007 2.263 0.065 0.859 0.097 1.728 0.097 2.604 0 2.263-0.219 4.474-0.603 6.398zM695.662 342.601c3.291-12.105 25.929-108.69 44.507-187.502-74.569 55.259-171.666 126.501-196.169 146.286v0c-2.523 2.048-4.389 3.657-5.23 4.462-6.627 6.671-15.805 10.799-25.947 10.799s-19.321-4.129-25.945-10.797c-2.494-1.676-6.781-8.195-8.724-15.661-35.273-27.422-128.969-95.811-198.089-146.864 17.737 78.519 40.521 180.005 43.886 192.293 2.823 9.386 4.449 20.172 4.449 31.338 0 18.258-4.345 35.5-12.058 50.751l-118.343 117.958h163.035c0.329 0 0.658 0 0.987 0h3.694c0.731 0 1.317 0.366 2.048 0.402 7.321 0.228 15.457 3.583 21.816 8.97-2.687-2.893 1.862 1.152 5.204 6.083-4.373-4.252-0.491-0.966 2.542 3.004 0.39 0.631 1.377 2.643 1.926 3.74l0.183 0.366c12.105 22.967 73.509 146.286 112.567 224.11 39.058-77.787 100.462-201.143 112.567-224.11v-0.366c0.549-1.024 1.536-2.999 1.865-3.657-3.579 4.987-0.912 0.63 2.536-2.975-2.374 2.942 0.958-2.179 5.305-6.221 5.292-5.034 13.091-8.564 21.709-8.941 0.987-0.039 1.572-0.405 2.303-0.405h3.657c0.329 0 0.658 0 0.987 0h162.779l-119.442-119.442c-9.618-12.836-15.401-29.029-15.401-46.572 0-9.71 1.772-19.007 5.010-27.584z" />
<glyph unicode="&#xe927;" glyph-name="040_star_full" data-tags="star_full" d="M950.857 572.233v0c0-0.052 0-0.113 0-0.175 0-10.119-4.11-19.279-10.751-25.9l-174.227-174.227c-0.029 0.856 3.299-4.295 5.194-10.095 5.521-20.222 63.779-270.883 69.229-290.851 0.383-1.924 0.603-4.135 0.603-6.398 0-0.876-0.033-1.744-0.097-2.604 0.007-0.69 0.007-1.458 0.007-2.263 0.016-2.038-0.634-5.647-1.791-9.020 1.545 1.635-2.704-8.157-8.928-16.371-6.361-6.204-15.246-10.131-25.048-10.131-2.001 0-3.964 0.164-5.877 0.478-0.596-0.118-4.080 0.441-7.377 1.431-0.57 0.223-1.374 0.405-2.179 0.771-5.571 0.835-13.969 6.473-19.486 14.29-37.054 29.377-186.155 138.14-252.423 188.133-69.303-52.37-252.891-185.271-264.777-197.193-6.533-6.445-15.512-10.425-25.421-10.425-8.796 0-16.859 3.136-23.132 8.352-10.619 6.361-17.654 17.878-17.654 31.038 0 3.157 0.405 6.22 1.166 9.139 5.064 19.278 59.666 264.453 64.786 283.982 0.002 2.628 3.373 9.387 8.319 14.647l-177.133 177.536c-6.542 6.575-10.654 15.729-10.715 25.844v0.012c0 20.198 16.374 36.571 36.571 36.571h233.070c31.013 60.928 128.695 257.719 137.545 273.518 0.366 0.695 1.024 1.061 1.463 1.719-2.773-3.587 0.524 1.531 4.813 5.618-3.182-3.261 0.647 1.394 5.369 4.92 0.717 0.507 1.082 1.165 1.741 1.567-3.080-1.322 0.347 0.405 4.042 1.512-1.215-0.36 2.786 1.453 7.097 2.465 2.307 0.363 4.697 0.544 7.129 0.544s4.822-0.181 7.157-0.529c-1.168 0.535 3.138-0.633 7.040-2.508-2.812 0.933 0.884-0.006 4.286-1.493 0.443-0.318 0.808-0.977 1.43-1.415-3.485 2.862 1.495-0.556 5.419-4.939-3.198 3.309 1.368-0.686 4.78-5.549 0.48-0.775 1.138-1.141 1.541-1.836 8.887-15.872 106.606-212.663 137.582-273.591h233.070c-0.893 0.233 1.916-0.193 4.594-0.935 16.636-0.849 30.143-14.349 31.060-31.2-0.303 1.362 0.473-1.386 0.895-4.25z" />
<glyph unicode="&#xe928;" glyph-name="041_home_line" data-tags="home_line" d="M977.006 397.787c-6.465-6.458-15.392-10.453-25.253-10.453s-18.788 3.994-25.253 10.453l-414.976 414.939-414.025-414.903c-6.385-6.017-15.014-9.715-24.507-9.715-19.753 0-35.767 16.013-35.767 35.767 0 9.52 3.719 18.171 9.784 24.58l437.671 438.621c0.512 0.549 0.658 1.28 1.207 1.792-0.37 0.568 5.141 5.098 11.613 7.776 4.723 2.297 10.002 3.591 15.584 3.591 9.703 0 18.494-3.908 24.884-10.236-1.103 1.897 2.867-2.76 5.466-8.199l151.898-152.018c0 42.496-0.366 86.528-0.366 97.097 0 20.056 16.259 36.315 36.315 36.315s36.315-16.259 36.315-36.315c0 0 0 0 0 0 0-17.627 0.512-128.622 0.658-169.911l208.457-208.457c6.612-6.489 10.71-15.52 10.71-25.507 0-9.843-3.98-18.756-10.418-25.218zM218.661 424.229c20.103-0.124 36.352-16.45 36.352-36.571 0 0 0 0 0-0.001 0-16.384 0.439-209.225 0.622-292.571l147.456 0.475c-0.183 47.36-0.512 122.624-0.549 142.885 0 1.061-0.622 1.938-0.622 3.035 0.457 20.176 16.739 36.411 36.901 36.79 0.987 0.001 1.755-0.475 2.706-0.548 24.759 0 123.977 0.658 143.506 0.658 0.065 0 0.142 0.001 0.22 0.001 20.051 0 36.311-16.234 36.352-36.276s0-0.26 0-0.37v0c0-14.958 0.366-96.878 0.549-146.688l145.847 0.402c0 83.456-0.585 275.712-0.622 292.096 0 20.056 16.259 36.315 36.315 36.315s36.315-16.259 36.315-36.315c0 0 0 0 0 0 0-19.895 0.622-299.886 0.695-327.607 0-0.183 0-0.366 0-0.549s0-0.366 0-0.549v-0.695c0-0.065 0.001-0.142 0.001-0.22 0-20.051-16.234-36.311-36.276-36.352-0.249-0.133-3.447 0.405-6.466 1.346l-211.65-0.724c-0.183 0-0.366 0-0.549 0s-0.366 0-0.549 0h-0.439c-0.065 0-0.142-0.001-0.22-0.001-20.051 0-36.311 16.234-36.352 36.276-0.131 0.266 0.406 3.454 1.345 6.465-0.066 23.967-0.431 95.574-0.614 140.63l-73.509-0.329c0.183-49.81 0.549-131.657 0.549-146.578 0-0.065 0.001-0.142 0.001-0.22 0-20.051-16.234-36.311-36.276-36.352 1.097-0.248-1.549 0.142-4.078 0.821l-213.051-0.712c-1.061 0-1.938-0.622-2.999-0.622-20.287 0.318-36.663 16.653-37.046 36.901-0.001 0.987 0.475 1.792 0.548 2.706-0.219 33.353-0.658 306.688-0.695 326.473 0 0.065-0.001 0.142-0.001 0.22 0 20.051 16.234 36.311 36.276 36.352z" />
<glyph unicode="&#xe929;" glyph-name="042_home_full" data-tags="home_full" d="M585.143 277.943h-146.286l-0.219-255.049c-19.419 0-185.527-0.622-216.174-0.658-1.061 0-1.938-0.622-2.999-0.622-20.227 0.377-36.535 16.669-36.937 36.863-0.001 0.989 0.475 1.793 0.548 2.708 0 29.989-0.366 283.904-0.549 421.851l-85.029-85.211c-6.385-6.017-15.014-9.715-24.507-9.715-19.753 0-35.767 16.013-35.767 35.767 0 9.52 3.719 18.171 9.784 24.58l143.162 143.343c-1.86-1.697 2.14 3.545 7.229 7.435l287.244 287.843c0.512 0.549 0.658 1.28 1.207 1.792-0.351 0.586 5.169 5.109 11.649 7.776 4.723 2.297 10.003 3.59 15.585 3.59 9.703 0 18.494-3.908 24.884-10.236-1.103 1.897 2.867-2.76 5.466-8.199l284.689-284.809c0.731-0.658 1.39-1.317 2.048-2.048l146.688-146.688c6.947-6.534 11.274-15.786 11.274-26.049 0-19.733-15.997-35.73-35.73-35.73-10.263 0-19.515 4.327-26.032 11.256l-86.216 86.217c0.183-139.703 0.549-400.347 0.549-424.229 0-0.183 0-0.366 0-0.549s0-0.366 0-0.549v-0.475c0-0.065 0.001-0.142 0.001-0.22 0-20.051-16.234-36.311-36.276-36.352-0.249-0.133-3.447 0.405-6.466 1.346-36.802-0.066-194.462-0.724-213.333-0.724z" />
<glyph unicode="&#xe92a;" glyph-name="043_layout_all" data-tags="layout_all" d="M658.286 863.086c-60.594 0-109.714-49.121-109.714-109.714v-146.286c0-60.594 49.121-109.714 109.714-109.714h146.286c60.594 0 109.714 49.121 109.714 109.714v146.286c0 60.594-49.121 109.714-109.714 109.714h-146.286zM658.286 424.229c-60.594 0-109.714-49.121-109.714-109.714v-146.286c0-60.594 49.121-109.714 109.714-109.714h146.286c60.594 0 109.714 49.121 109.714 109.714v146.286c0 60.594-49.121 109.714-109.714 109.714h-146.286zM658.286 789.943h146.286c20.198 0 36.571-16.374 36.571-36.571v-146.286c0-20.198-16.374-36.571-36.571-36.571h-146.286c-20.198 0-36.571 16.374-36.571 36.571v146.286c0 20.198 16.374 36.571 36.571 36.571zM658.286 351.086h146.286c20.198 0 36.571-16.374 36.571-36.571v-146.286c0-20.198-16.374-36.571-36.571-36.571h-146.286c-20.198 0-36.571 16.374-36.571 36.571v146.286c0 20.198 16.374 36.571 36.571 36.571zM219.429 863.086c-60.594 0-109.714-49.121-109.714-109.714v-146.286c0-60.594 49.121-109.714 109.714-109.714h146.286c60.594 0 109.714 49.121 109.714 109.714v146.286c0 60.594-49.121 109.714-109.714 109.714h-146.286zM219.429 424.229c-60.594 0-109.714-49.121-109.714-109.714v-146.286c0-60.594 49.121-109.714 109.714-109.714h146.286c60.594 0 109.714 49.121 109.714 109.714v146.286c0 60.594-49.121 109.714-109.714 109.714h-146.286zM219.429 789.943h146.286c20.198 0 36.571-16.374 36.571-36.571v-146.286c0-20.198-16.374-36.571-36.571-36.571h-146.286c-20.198 0-36.571 16.374-36.571 36.571v146.286c0 20.198 16.374 36.571 36.571 36.571zM219.429 351.086h146.286c20.198 0 36.571-16.374 36.571-36.571v-146.286c0-20.198-16.374-36.571-36.571-36.571h-146.286c-20.198 0-36.571 16.374-36.571 36.571v146.286c0 20.198 16.374 36.571 36.571 36.571z" />
<glyph unicode="&#xe92b;" glyph-name="044_layout_left" data-tags="layout_left" d="M658.286 863.086c-60.594 0-109.714-49.121-109.714-109.714v-146.286c0-60.594 49.121-109.714 109.714-109.714h146.286c60.594 0 109.714 49.121 109.714 109.714v146.286c0 60.594-49.121 109.714-109.714 109.714h-146.286zM658.286 424.229c-60.594 0-109.714-49.121-109.714-109.714v-146.286c0-60.594 49.121-109.714 109.714-109.714h146.286c60.594 0 109.714 49.121 109.714 109.714v146.286c0 60.594-49.121 109.714-109.714 109.714h-146.286zM219.429 863.086c-60.594 0-109.714-49.121-109.714-109.714v-585.143c0-60.594 49.121-109.714 109.714-109.714h146.286c60.594 0 109.714 49.121 109.714 109.714v585.143c0 60.594-49.121 109.714-109.714 109.714h-146.286zM219.429 789.943h146.286c20.198 0 36.571-16.374 36.571-36.571v-585.143c0-20.198-16.374-36.571-36.571-36.571h-146.286c-20.198 0-36.571 16.374-36.571 36.571v585.143c0 20.198 16.374 36.571 36.571 36.571zM658.286 789.943h146.286c20.198 0 36.571-16.374 36.571-36.571v-146.286c0-20.198-16.374-36.571-36.571-36.571h-146.286c-20.198 0-36.571 16.374-36.571 36.571v146.286c0 20.198 16.374 36.571 36.571 36.571zM658.286 351.086h146.286c20.198 0 36.571-16.374 36.571-36.571v-146.286c0-20.198-16.374-36.571-36.571-36.571h-146.286c-20.198 0-36.571 16.374-36.571 36.571v146.286c0 20.198 16.374 36.571 36.571 36.571z" />
<glyph unicode="&#xe92c;" glyph-name="045_layout_right" data-tags="layout_right" d="M219.429 863.086c-60.594 0-109.714-49.121-109.714-109.714v-146.286c0-60.594 49.121-109.714 109.714-109.714h146.286c60.594 0 109.714 49.121 109.714 109.714v146.286c0 60.594-49.121 109.714-109.714 109.714h-146.286zM219.429 424.229c-60.594 0-109.714-49.121-109.714-109.714v-146.286c0-60.594 49.121-109.714 109.714-109.714h146.286c60.594 0 109.714 49.121 109.714 109.714v146.286c0 60.594-49.121 109.714-109.714 109.714h-146.286zM219.429 789.943h146.286c20.198 0 36.571-16.374 36.571-36.571v-146.286c0-20.198-16.374-36.571-36.571-36.571h-146.286c-20.198 0-36.571 16.374-36.571 36.571v146.286c0 20.198 16.374 36.571 36.571 36.571zM219.429 351.086h146.286c20.198 0 36.571-16.374 36.571-36.571v-146.286c0-20.198-16.374-36.571-36.571-36.571h-146.286c-20.198 0-36.571 16.374-36.571 36.571v146.286c0 20.198 16.374 36.571 36.571 36.571zM658.286 863.086c-60.594 0-109.714-49.121-109.714-109.714v-585.143c0-60.594 49.121-109.714 109.714-109.714h146.286c60.594 0 109.714 49.121 109.714 109.714v585.143c0 60.594-49.121 109.714-109.714 109.714h-146.286zM658.286 789.943h146.286c20.198 0 36.571-16.374 36.571-36.571v-585.143c0-20.198-16.374-36.571-36.571-36.571h-146.286c-20.198 0-36.571 16.374-36.571 36.571v585.143c0 20.198 16.374 36.571 36.571 36.571z" />
<glyph unicode="&#xe92d;" glyph-name="046_check_circle" data-tags="check_circle" d="M512 21.943c-242.374 0-438.857 196.483-438.857 438.857s196.483 438.857 438.857 438.857c242.374 0 438.857-196.483 438.857-438.857s-196.483-438.857-438.857-438.857zM512 826.514c-201.978 0-365.714-163.736-365.714-365.714s163.736-365.714 365.714-365.714c201.978 0 365.714 163.736 365.714 365.714s-163.736 365.714-365.714 365.714zM503.479 326.29c-0.512-0.512-1.243-0.695-1.755-1.17v-0.183c-6.332-6.355-15.091-10.287-24.768-10.287-5.105 0-9.955 1.094-14.328 3.061-1.009-0.46-7.796 3.219-13.057 8.435 3.952-4.965 0.465-1.18-2.135 3.194l-144.44 144.552c-6.355 6.355-10.286 15.135-10.286 24.832 0 19.395 15.723 35.118 35.118 35.118 9.697 0 18.477-3.931 24.832-10.286l119.991-119.991 192.951 192.951c6.917 6.917 16.472 11.195 27.026 11.195 21.109 0 38.221-17.112 38.221-38.221 0-10.554-4.278-20.11-11.195-27.026z" />
<glyph unicode="&#xe92e;" glyph-name="047_check_square" data-tags="check_square" d="M877.714 21.943h-731.429c-40.396 0-73.143 32.747-73.143 73.143v731.429c0 40.396 32.747 73.143 73.143 73.143h731.429c40.396 0 73.143-32.747 73.143-73.143v-731.429c0-40.396-32.747-73.143-73.143-73.143zM877.714 826.514h-731.429v-731.429h731.429v731.429zM352.622 523.52l119.991-119.991 192.987 192.987c6.917 6.917 16.472 11.195 27.026 11.195 21.109 0 38.221-17.112 38.221-38.221 0-10.554-4.278-20.11-11.195-27.026l-216.174-216.174c-0.512-0.512-1.243-0.695-1.755-1.17v-0.183c-6.332-6.355-15.091-10.287-24.768-10.287-5.105 0-9.955 1.094-14.328 3.061-1.009-0.46-7.796 3.219-13.057 8.435 3.952-4.965 0.465-1.18-2.135 3.194l-144.44 144.552c-5.902 6.267-9.53 14.734-9.53 24.049 0 19.39 15.719 35.109 35.109 35.109 9.314 0 17.782-3.627 24.066-9.546z" />
<glyph unicode="&#xe92f;" glyph-name="048_check" data-tags="check" d="M865.938 670.464c-14.921-14.921-347.429-457.143-362.459-472.174-0.512-0.512-1.243-0.695-1.755-1.17v-0.183c-6.332-6.355-15.091-10.287-24.768-10.287-5.105 0-9.955 1.094-14.328 3.061-1.009-0.46-7.796 3.219-13.057 8.435 3.235-4.157-0.365-0.164-2.976 4.461-41.2 45.346-276.903 313.159-289.739 325.995-6.355 6.355-10.286 15.135-10.286 24.832 0 19.395 15.723 35.118 35.118 35.118 9.697 0 18.477-3.931 24.832-10.286 11.191-11.191 191.854-216.247 265.143-298.459 76.91 99.145 327.314 431.762 340.224 444.709 6.917 6.917 16.472 11.195 27.026 11.195 21.109 0 38.221-17.112 38.221-38.221 0-10.554-4.278-20.11-11.195-27.026z" />
<glyph unicode="&#xe930;" glyph-name="049_radiobox" data-tags="radiobox" d="M512 899.657c-242.374 0-438.857-196.483-438.857-438.857s196.483-438.857 438.857-438.857c242.374 0 438.857 196.483 438.857 438.857s-196.483 438.857-438.857 438.857zM512 826.514c201.978 0 365.714-163.736 365.714-365.714s-163.736-365.714-365.714-365.714c-201.978 0-365.714 163.736-365.714 365.714s163.736 365.714 365.714 365.714zM512 643.657c100.989 0 182.857-81.868 182.857-182.857s-81.868-182.857-182.857-182.857c-100.989 0-182.857 81.868-182.857 182.857s81.868 182.857 182.857 182.857z" />
<glyph unicode="&#xe931;" glyph-name="050_monitor" data-tags="monitor" d="M877.714 259.657h-183.918l-73.143 73.143h257.061v402.286h-731.429v-402.286h257.061l-73.143-73.143h-183.918c-40.396 0-73.143 32.747-73.143 73.143v402.286c0 40.396 32.747 73.143 73.143 73.143h731.429c40.396 0 73.143-32.747 73.143-73.143v-402.286c0-40.396-32.747-73.143-73.143-73.143zM694.162 113.371h-364.325l182.162 218.734z" />
<glyph unicode="&#xe932;" glyph-name="051_print" data-tags="print" d="M877.714 95.086c40.396 0 73.143 32.747 73.143 73.143v256c0 40.396-32.747 73.143-73.143 73.143h-731.429c-40.396 0-73.143-32.747-73.143-73.143v-256c0-40.396 32.747-73.143 73.143-73.143h146.286v73.143h-146.286v256h731.429v-256h-147.346v-73.143h147.346zM329.143 241.371c-40.396 0-73.143-32.747-73.143-73.143v-73.143c0-40.396 32.747-73.143 73.143-73.143h365.714c40.396 0 73.143 32.747 73.143 73.143v73.143c0 40.396-32.747 73.143-73.143 73.143h-365.714zM329.143 168.229h365.714v-73.143h-365.714v73.143zM731.429 497.371v329.143h-438.857v-329.143zM219.429 497.371v329.143c0 40.396 32.747 73.143 73.143 73.143h438.857c40.396 0 73.143-32.747 73.143-73.143v-329.143z" />
<glyph unicode="&#xe933;" glyph-name="052_folder" data-tags="folder" d="M877.714 58.514h-731.429c-40.396 0-73.143 32.747-73.143 73.143v658.286c0 40.396 32.747 73.143 73.143 73.143h292.571c40.396 0 73.143-32.747 73.143-73.143l36.571-109.714h329.143c40.396 0 73.143-32.747 73.143-73.143v-475.429c0-40.396-32.747-73.143-73.143-73.143zM877.714 607.086h-365.714l-73.143 182.857h-292.571v-658.286h731.429v475.429z" />
<glyph unicode="&#xe934;" glyph-name="053_loard_up" data-tags="loard_up" d="M73.143 277.943v-182.857c0-40.396 32.747-73.143 73.143-73.143h731.429c40.396 0 73.143 32.747 73.143 73.143v182.857zM877.714 277.943v-182.857h-731.429v182.857zM551.131 769.353c77.349-81.042 146.286-155.063 156.306-165.559 6.336-6.759 15.321-10.971 25.289-10.971s18.953 4.211 25.272 10.952c6.502 6.931 10.486 16.258 10.486 26.515s-3.983 19.583-10.488 26.517c-13.951 14.608-206.061 217.689-220.031 232.317-6.629 6.682-15.814 10.818-25.966 10.818s-19.337-4.136-25.963-10.815c-13.973-14.631-206.082-217.712-220.053-232.341-6.485-6.913-10.468-16.239-10.468-26.496s3.983-19.583 10.488-26.517c6.317-6.738 15.302-10.95 25.27-10.95s18.953 4.211 25.272 10.952c10.331 10.99 85.266 91.118 163.053 172.636v-534.674c-0.023-0.483-0.037-1.049-0.037-1.618 0-19.774 16.030-35.803 35.803-35.803s35.803 16.030 35.803 35.803c0 0.569-0.013 1.135-0.040 1.697l0.003 527.536z" />
<glyph unicode="&#xe935;" glyph-name="054_loard_down" data-tags="loard_down" d="M73.143 277.943v-182.857c0-40.396 32.747-73.143 73.143-73.143h731.429c40.396 0 73.143 32.747 73.143 73.143v182.857zM877.714 277.943v-182.857h-731.429v182.857zM551.131 335.104c77.349 81.042 146.286 155.063 156.306 165.559 6.336 6.759 15.321 10.971 25.289 10.971s18.953-4.211 25.272-10.952c6.502-6.931 10.486-16.258 10.486-26.515s-3.983-19.583-10.488-26.517c-13.951-14.608-206.061-217.689-220.031-232.354-6.629-6.682-15.814-10.818-25.966-10.818s-19.337 4.136-25.963 10.815c-13.973 14.631-206.082 217.712-220.053 232.377-6.485 6.913-10.468 16.239-10.468 26.496s3.983 19.583 10.488 26.517c6.317 6.738 15.302 10.95 25.27 10.95s18.953-4.211 25.272-10.952c10.331-10.99 85.266-91.118 163.053-172.636v534.674c-0.023 0.483-0.037 1.049-0.037 1.618 0 19.774 16.030 35.803 35.803 35.803s35.803-16.030 35.803-35.803c0-0.569-0.013-1.135-0.040-1.697l0.003-527.536z" />
<glyph unicode="&#xe936;" glyph-name="055_weather_sun" data-tags="weather_sun" d="M512 716.8c-141.385 0-256-114.615-256-256s114.615-256 256-256c141.385 0 256 114.615 256 256s-114.615 256-256 256zM512 643.657c100.989 0 182.857-81.868 182.857-182.857s-81.868-182.857-182.857-182.857c-100.989 0-182.857 81.868-182.857 182.857s81.868 182.857 182.857 182.857zM877.714 424.229c-20.198 0-36.571 16.374-36.571 36.571s16.374 36.571 36.571 36.571h36.571c20.198 0 36.571-16.374 36.571-36.571s-16.374-36.571-36.571-36.571h-36.571zM146.286 424.229c20.198 0 36.571 16.374 36.571 36.571s-16.374 36.571-36.571 36.571h-36.571c-20.198 0-36.571-16.374-36.571-36.571s16.374-36.571 36.571-36.571h36.571zM548.571 826.514c0-20.198-16.374-36.571-36.571-36.571s-36.571 16.374-36.571 36.571v36.571c0 20.198 16.374 36.571 36.571 36.571s36.571-16.374 36.571-36.571v-36.571zM548.571 95.086c0 20.198-16.374 36.571-36.571 36.571s-36.571-16.374-36.571-36.571v-36.571c0-20.198 16.374-36.571 36.571-36.571s36.571 16.374 36.571 36.571v36.571zM796.453 693.541c-6.57-6.352-15.531-10.266-25.407-10.266-20.198 0-36.571 16.374-36.571 36.571 0 9.875 3.914 18.837 10.276 25.417l25.846 25.846c6.57 6.352 15.531 10.266 25.407 10.266 20.198 0 36.571-16.374 36.571-36.571 0-9.875-3.914-18.837-10.276-25.417zM279.259 176.347c6.352 6.57 10.266 15.531 10.266 25.407 0 20.198-16.374 36.571-36.571 36.571-9.875 0-18.837-3.914-25.417-10.276l-25.846-25.846c-6.352-6.57-10.266-15.531-10.266-25.407 0-20.198 16.374-36.571 36.571-36.571 9.875 0 18.837 3.914 25.417 10.276zM220.453 699.319c6.786-6.786 16.16-10.983 26.514-10.983 20.709 0 37.497 16.788 37.497 37.497 0 10.354-4.197 19.729-10.983 26.514l-26.514 26.624c-6.8 6.8-16.193 11.005-26.569 11.005-20.752 0-37.574-16.823-37.574-37.574 0-10.376 4.206-19.77 11.005-26.569zM750.555 169.253c-7.232 6.848-11.732 16.518-11.732 27.239 0 20.703 16.783 37.486 37.486 37.486 10.721 0 20.39-4.5 27.222-11.715l26.64-26.495c6.786-6.786 10.983-16.16 10.983-26.514 0-20.709-16.788-37.497-37.497-37.497-10.354 0-19.729 4.197-26.514 10.983z" />
<glyph unicode="&#xe937;" glyph-name="056_weather_cloud" data-tags="weather_cloud" d="M621.714 131.657c0.103 0 0.224 0 0.345 0 181.781 0 329.143 147.362 329.143 329.143s-147.362 329.143-329.143 329.143c-129.099 0-240.839-74.326-294.762-182.52-6.128-1.544-11.101-0.337-16.441-0.337-131.286 0-237.714-106.428-237.714-237.714s106.428-237.714 237.714-237.714h310.857zM310.857 204.8c-0.107 0-0.235 0-0.362 0-90.89 0-164.571 73.681-164.571 164.571s73.681 164.571 164.571 164.571c22.637 0 44.206-4.57 63.835-12.839 27.177 113.358 127.781 195.696 247.615 195.696 141.385 0 256-114.615 256-256s-114.615-256-256-256c-0.081 0-0.163 0-0.244 0h-310.845z" />
<glyph unicode="&#xe938;" glyph-name="057_weather_humidity" data-tags="weather_humidity" d="M512 21.943c-202.166 0.871-365.717 164.959-365.717 367.247 0 0.528 0.001 1.056 0.003 1.584 0 203.585 365.714 508.883 365.714 508.883s365.714-305.298 365.714-508.965c0.002-0.446 0.003-0.974 0.003-1.503 0-202.288-163.551-366.376-365.634-367.247zM512 789.943s-292.352-245.76-292.352-405.687c-0.001-0.29-0.002-0.632-0.002-0.975 0-159.381 129.204-288.585 288.585-288.585 1.325 0 2.648 0.009 3.969 0.027 0.92-0.018 2.243-0.027 3.568-0.027 159.381 0 288.585 129.204 288.585 288.585 0 0.343-0.001 0.686-0.002 1.028 0 159.874-292.352 405.634-292.352 405.634z" />
<glyph unicode="&#xe939;" glyph-name="058_weather_moon" data-tags="weather_moon" d="M951.406 460.032c-0.402-0.402-0.841-0.622-1.243-0.987-0.997-241.618-197.097-437.102-438.854-437.102-242.374 0-438.857 196.483-438.857 438.857s196.483 438.857 438.857 438.857c0.037 0 0.075 0 0.112 0l0.214-0.219v0.219l51.968-51.968c-42.943-42.961-69.502-102.301-69.502-167.845 0-131.123 106.296-237.42 237.42-237.42 65.58 0 124.95 26.589 167.917 69.574zM145.701 460.8c0-0.032 0-0.069 0-0.107 0-201.857 163.638-365.495 365.495-365.495 181.923 0 332.803 132.914 360.828 306.932-41.001-19.758-89.956-32.586-141.907-32.586-170.551 0-308.809 138.259-308.809 308.809 0 52.523 13.113 101.984 36.243 145.287-177.805-29.046-311.744-180.285-311.85-362.828z" />
<glyph unicode="&#xe93a;" glyph-name="059_weather_temperature" data-tags="weather_temperature" d="M512 21.943c-0.049 0-0.108 0-0.166 0-121.086 0-219.246 98.16-219.246 219.246 0 80.754 43.659 151.312 108.661 189.355l1.036 359.399c0 60.594 49.121 109.714 109.714 109.714s109.714-49.121 109.714-109.714v-358.729c65.869-38.689 109.389-109.183 109.389-189.843 0-121.073-98.056-219.243-219.085-219.428zM548.571 789.943c0 20.198-16.374 36.571-36.571 36.571s-36.571-16.374-36.571-36.571v-407.442c-63.596-16.822-109.714-73.845-109.714-141.641 0-80.791 65.494-146.286 146.286-146.286s146.286 65.494 146.286 146.286c0 67.795-46.118 124.819-108.694 141.41l-1.021 5.387z" />
<glyph unicode="&#xe93b;" glyph-name="060_weather_rain" data-tags="weather_rain" d="M914.286 424.229h-365.714v-256c0-40.396 32.747-73.143 73.143-73.143s73.143 32.747 73.143 73.143c0 20.198 16.374 36.571 36.571 36.571s36.571-16.374 36.571-36.571c0-80.791-65.494-146.286-146.286-146.286s-146.286 65.494-146.286 146.286v256h-365.714c-20.198 0-36.571 16.374-36.571 36.571 0 242.374 196.483 438.857 438.857 438.857s438.857-196.483 438.857-438.857c0-20.198-16.374-36.571-36.571-36.571zM512 826.514c-0.001 0-0.003 0-0.005 0-189.099 0-344.676-143.519-363.749-327.574l727.64-1.569c-19.205 185.624-174.783 329.143-363.881 329.143-0.002 0-0.003 0-0.005 0z" />
<glyph unicode="&#xe93c;" glyph-name="061_weather_thunder" data-tags="weather_thunder" d="M766.318 852.699c-4.059-15.726-111.909-195.218-160.658-281.6h125.184c0.585 0 1.061-0.293 1.609-0.329 0.643 0.046 1.394 0.072 2.151 0.072 5.939 0 11.505-1.602 16.288-4.397 10.396-6.728 17.281-18.425 17.281-31.73 0-6.699-1.745-12.99-4.806-18.444-9.191-16.779-371.431-428.976-403.76-471.581-1.808-6.238-8.912-14.087-18.060-18.195-4.744-2.612-10.138-4.096-15.878-4.096-6.155 0-11.912 1.707-16.823 4.673-8.601 5.18-15.286 15.289-16.374 27.021-0.011 1.24-0.011 2.337-0.23 3.471-0.035 0.605-0.055 1.313-0.055 2.025 0 2.283 0.206 4.517 0.602 6.686-0.043 0.625 0.081 2.326 0.317 3.991 4.147 16.226 72.023 282.503 99.635 391.12h-100.754c-1.233-0.059-4.685 0.543-7.927 1.606-0.558-0.070-1.326-0.070-2.13-0.070s-0.622 0.585-0.914 0.695c0.503-0.732-5.069 1.645-9.747 5.15-0.859 0.592-1.883 1.104-2.76 1.872 1.557-2.043-3.256 2.435-6.641 7.893-0.746 1.14-1.514 1.908-2.1 2.969 0.095-0.859-1.718 3.374-2.666 7.924-0.152 0.044-1.001 3.349-1.379 6.794-0.015 0.715-0.307 1.19-0.307 1.739s0.512 1.902 0.585 2.926c-0.024 0.498-0.037 1.081-0.037 1.668 0 2.254 0.2 4.46 0.583 6.604 4.867 18.791 128.771 310.412 145.704 357.004 1.202 16.95 14.326 30.707 31.088 32.895l1.059 0.019c-2.87-1.015 0.289 0.301 3.642 1.122l292.806 0.049c1.233 0.059 4.685-0.543 7.927-1.606 0.558 0.070 1.326 0.070 2.13 0.070s0.658-0.402 1.024-0.512c-0.503 0.719 5.024-1.604 9.678-5.042 0.854-0.59 1.878-1.102 2.756-1.834-1.564 2.049 3.253-2.432 6.641-7.893 0.746-1.177 1.514-2.018 2.1-3.115-0.098 0.865 1.717-3.371 2.666-7.923 0.146-0.023 0.998-3.338 1.379-6.793-0.022-0.899 0.271-1.375 0.271-1.923s-0.512-1.902-0.585-2.926c0.024-0.501 0.038-1.087 0.038-1.677 0-2.25-0.2-4.454-0.583-6.594zM464.165 827.099c-24.43-61.367-89.307-215.296-120.686-292.571h94.793c1.237 0.058 4.686-0.543 7.927-1.606 0.558 0.070 1.326 0.070 2.13 0.070s0.658-0.402 1.024-0.512c-0.503 0.719 5.024-1.604 9.678-5.042 0.854-0.59 1.878-1.102 2.756-1.87-1.551 2.037 3.26-2.439 6.641-7.893 0.746-1.176 1.514-2.018 2.099-3.115-0.101 0.87 1.716-3.367 2.666-7.923 0.147-0.028 0.998-3.34 1.379-6.794-0.022-0.862 0.271-1.338 0.271-1.886s-0.512-1.902-0.585-2.926c0.031-0.568 0.049-1.232 0.049-1.9 0-2.197-0.191-4.349-0.556-6.441-3.113-11.992-41.952-164.349-72.891-285.949 83.237 96.366 195.035 224.805 256.841 297.216h-109.714c-1.237-0.058-4.686 0.543-7.927 1.606-0.558-0.070-1.326-0.070-2.13-0.070s-0.658 0.402-1.024 0.512c0.524-0.727-5.014 1.6-9.679 5.042-0.854 0.59-1.878 1.102-2.755 1.87 1.551-2.037-3.26 2.439-6.641 7.893-0.746 1.176-1.514 2.018-2.099 3.115 0.101-0.87-1.716 3.367-2.666 7.923-0.147 0.028-0.998 3.34-1.379 6.794 0.022 0.862-0.271 1.338-0.271 1.886s0.512 1.902 0.585 2.926c-0.024 0.501-0.038 1.087-0.038 1.677 0 2.25 0.2 4.454 0.583 6.594 4.026 15.5 111.875 194.993 160.625 281.375h-209.006z" />
<glyph unicode="&#xe93d;" glyph-name="062_chatting" data-tags="chatting" d="M938.35 254.574l-18.286-195.803-164.571 109.714c-17.804-3.003-38.997-4.791-60.6-4.827-3.237-0.109-7-0.171-10.778-0.171-119.648 0-224.789 62.116-284.932 155.86-21.54-2.596-45.386-4.852-69.759-4.852-21.625 0-42.834 1.776-63.491 5.19l-161.886-108.924-18.286 193.829c-51.052 43.934-84.468 110.045-85.757 183.988-0.003 151.701 147.343 274.508 329.14 274.508 3.2 0.108 6.96 0.169 10.736 0.169 118.209 0 222.333-60.305 283.286-151.828 21.697 2.886 46.396 5.331 71.658 5.373 181.831 0 329.177-123.831 329.177-276.59-0.642-72.757-33.53-139.559-85.381-185.403zM329.143 789.943c-141.385 0-256-90.039-256-201.143 1.016-57.535 30.534-110.023 75.463-142.518l1.923-11.887 12.873-105.874 100.535 66.45c17.902-4.261 41.167-7.101 65.060-7.313 12.49-0.009 28.433 1.211 44.012 3.545-5.085 13.731-7.186 31.096-7.293 48.933 4.238 113.117 79.126 210.366 182.647 247.641-48.469 62.845-124.877 102.305-210.501 102.305-3.066 0-6.119-0.051-9.161-0.151zM694.857 642.523c-141.385 0-256-90.807-256-202.862s114.615-202.862 256-202.862c21.532 0.020 45.115 2.782 67.769 7.98l26.585-19.573 71.387-47.543 11.557 95.854 2.67 21.943c44.343 31.702 74.372 84.278 76.026 143.947 0.006 112.273-114.609 203.116-255.994 203.116zM585.143 460.8c-20.198 0-36.571 16.374-36.571 36.571s16.374 36.571 36.571 36.571h219.429c20.198 0 36.571-16.374 36.571-36.571s-16.374-36.571-36.571-36.571h-219.429zM585.143 351.086c-20.198 0-36.571 16.374-36.571 36.571s16.374 36.571 36.571 36.571h219.429c20.198 0 36.571-16.374 36.571-36.571s-16.374-36.571-36.571-36.571h-219.429z" />
<glyph unicode="&#xe93e;" glyph-name="063_battary" data-tags="battary" d="M950.857 168.229c20.198 0 36.571 16.374 36.571 36.571v512c0 20.198-16.374 36.571-36.571 36.571h-329.143c-20.198 0-36.571-16.374-36.571-36.571s16.374-36.571 36.571-36.571h292.571v-438.857h-146.286c-20.198 0-36.571-16.374-36.571-36.571s16.374-36.571 36.571-36.571h182.857zM692.096 447.287c1.912 4.436 2.972 9.327 2.972 14.464 0 10.133-4.121 19.304-10.78 25.928-14.409 14.336-168.229 204.069-182.636 218.403-6.692 6.654-15.913 10.765-26.095 10.765s-19.404-4.112-26.097-10.767c-6.69-6.627-10.833-15.82-10.833-25.981s4.144-19.354 14.483-31.61c135.884-198.035 313.751-365.006 117.039-151.083h-94.683c-0.878 0-1.609-0.512-2.524-0.514-4.506-0.187-8.802-1.183-11.667-2.431-5.724-2.696-10.626-6.852-8.971-5.955-4.058-2.411-7.576-5.637-2.844-1.891-6.69-6.627-10.833-15.82-10.833-25.981s4.144-19.354 10.836-25.984c14.409-14.336 168.229-204.069 182.636-218.403 6.692-6.654 15.913-10.765 26.095-10.765s19.404 4.112 26.097 10.767c6.69 6.627 10.833 15.82 10.833 25.981s-4.144 19.354-14.448 31.571c-134.007 195.77-309.558 360.859-116.379 150.427h93.998c15.356 0.076 28.475 9.617 33.892 23.296zM365.714 680.229c20.198 0 36.571 16.374 36.571 36.571s-16.374 36.571-36.571 36.571h-182.857c-20.198 0-36.571-16.374-36.571-36.571v-512c0-20.198 16.374-36.571 36.571-36.571h329.143c20.198 0 36.571 16.374 36.571 36.571s-16.374 36.571-36.571 36.571h-292.571v438.857h146.286zM73.143 314.514c20.198 0 36.571 16.374 36.571 36.571v219.429c0 20.198-16.374 36.571-36.571 36.571s-36.571-16.374-36.571-36.571v-219.429c0-20.198 16.374-36.571 36.571-36.571z" />
<glyph unicode="&#xe93f;" glyph-name="064_money_bill" data-tags="money_bill" d="M1006.665 408.576c78.469 69.564-34.419-52.277-170.917-140.803-118.217-68.349-243.986-56.536-357.065-121.816 58 47.080-61.841-28.348-156.534-127.916-0.13-1.589-5.337-7.66-11.937-11.661-5.405-3.17-11.713-4.989-18.445-4.989-13.465 0-25.23 7.277-31.578 18.112l-256.093 443.565c-3.080 5.245-4.899 11.553-4.899 18.285 0 13.465 7.277 25.23 18.112 31.578-74.035-65.698 35.117 52.704 167.298 138.682 117.474 68.040 243.828 56.447 357.894 122.312-61.164-49.054 62.034 28.010 159.608 129.825 0.053 1.465 5.248 7.494 11.824 11.47 5.406 3.17 11.713 4.989 18.446 4.989 13.465 0 25.23-7.277 31.578-18.112l256.093-443.565c3.080-5.245 4.899-11.553 4.899-18.285 0-13.465-7.277-25.23-18.112-31.578zM723.602 825.71c63.789 54.408-30.703-44.181-144.268-115.067-117.803-67.827-243.609-56.014-356.651-121.294 57.699 44.905-53.264-23.089-141.707-113.252l219.312-380.243c-60.121-51.135 30.957 44.115 140.525 112.512 117.084 67.712 243.438 56.119 357.504 121.984-60.68-46.669 53.474 22.766 144.683 114.949zM612.963 688.009c-5.361-3.188-8.954-9.039-8.954-15.728 0-10.099 8.187-18.286 18.286-18.286 3.324 0 6.44 0.887 9.038 2.39l95.17 54.903c5.361 3.188 8.954 9.039 8.954 15.728 0 10.099-8.187 18.286-18.286 18.286-3.324 0-6.44-0.887-9.038-2.39l-95.086-54.857zM504.553 496.734c-15.109-5.611-31.455-8.677-48.516-8.677-1.836 0-3.663 0.035-5.348 0.115-6.951 1.155-12.798 5.577-15.364 10.646-1.987 3.189-3.135 6.955-3.135 10.989 0 3.1 0.678 6.042 1.998 8.906 6.927 13.948 19.103 24.828 26.726 26.925 8.551 5.88 18.91 9.322 30.072 9.322 1.656 0 3.295-0.076 5.042-0.28 13.035-3.253 24.005-11.721 28.261-19.458l45.682 29.661c-12.426 21.5-34.142 36.958-53.53 39.753-5.289 0.778-10.701 1.181-16.206 1.181-23.223 0-44.772-7.17-62.851-19.513-23.355-12.863-42.321-32.715-40.231-34.48-9.215-12.094-14.784-27.117-15.012-41.584-0.037-0.981-0.056-1.966-0.056-2.956 0-36.347 25.394-66.762 59.148-74.48 6.723-0.957 13.595-1.452 20.583-1.452 16.94 0 33.201 2.91 47.297 7.945 22.577 6.12 37.104 9.756 43.583 10.91 3.334 0.797 6.813 1.219 10.391 1.219 4.621 0 9.077-0.704 13.128-1.99 6.566-2.701 11.801-7.975 13.082-11.687 2.939-5.133 4.619-11.080 4.619-17.418 0-4.668-0.911-9.122-2.627-13.341-6.453-14.843-18.856-26.501-28.128-29.367-8.983-5.918-19.741-9.361-31.303-9.361-3.397 0-6.725 0.297-10.098 0.933-17.246 4.826-31.748 16.222-36.783 25.485l-42.902-31.526c16.46-24.795 42.768-42.485 63.432-45.445 5.849-0.931 11.847-1.414 17.958-1.414 23.547 0 45.418 7.179 63.913 19.597 26.174 14.287 47.518 36.312 44.735 37.645 9.891 12.945 15.824 29.077 15.97 45.472 0.031 0.948 0.047 1.9 0.047 2.855 0 15.836-4.294 30.67-11.79 43.455-9.6 17.719-25.195 31.716-31.14 32.806-11.276 6.455-24.339 10.145-38.264 10.145-0.824 0-1.644-0.013-3.171-0.084-26.454-1.908-51.796-7.83-60.173-11.765zM411.052 233.593c5.777 3.073 9.711 9.154 9.711 16.155 0 10.099-8.187 18.286-18.286 18.286-3.641 0-7.033-1.064-9.81-2.854l-95.174-54.904c-5.475-3.159-9.16-9.074-9.16-15.849 0-10.099 8.187-18.286 18.286-18.286 3.409 0 6.6 0.933 9.248 2.511l95.086 54.857z" />
<glyph unicode="&#xe940;" glyph-name="065_cross_arrow" data-tags="cross_arrow" d="M828.599 578.121c-6.322-5.919-14.847-9.555-24.22-9.555-19.592 0-35.474 15.882-35.474 35.474 0 9.373 3.635 17.898 9.573 24.24l12.526 12.524h-60.709c-218.77 0-215.515-438.857-436.59-438.857h-147.419c-20.198 0-36.571 16.374-36.571 36.571s16.374 36.571 36.571 36.571h109.714c223.707 0 212.736 438.857 438.857 438.857h94.574l-16.347 16.347c-6.888 6.659-11.165 15.983-11.165 26.305 0 20.198 16.374 36.571 36.571 36.571 10.322 0 19.646-4.277 26.296-11.155l77.505-77.505c0.475-0.439 1.097-0.585 1.536-1.024 6.411-6.418 10.376-15.281 10.376-25.070s-3.965-18.652-10.376-25.070zM256 640.805h-109.714c-20.198 0-36.571 16.374-36.571 36.571s16.374 36.571 36.571 36.571h147.419c71.461 0 119.369-46.080 159.013-108.142l-41.911-66.011c-38.363 58.478-85.321 101.010-154.807 101.010zM730.295 275.090h59.136l-16.347 16.347c-6.352 6.57-10.266 15.531-10.266 25.407 0 20.198 16.374 36.571 36.571 36.571 9.875 0 18.837-3.914 25.417-10.276l77.485-77.485c0.475-0.439 1.097-0.549 1.536-1.024 6.411-6.418 10.376-15.281 10.376-25.070s-3.965-18.652-10.376-25.070l-75.227-75.227c-6.322-5.919-14.847-9.555-24.22-9.555-19.592 0-35.474 15.882-35.474 35.474 0 9.373 3.635 17.898 9.573 24.24l12.526 12.524h-96.146c-76.544 0-125.696 50.688-166.217 117.029l42.459 66.889c39.643-63.232 87.442-110.775 159.195-110.775z" />
<glyph unicode="&#xe941;" glyph-name="066_letter" data-tags="letter" d="M768 21.943h-512c-80.791 0-146.286 65.494-146.286 146.286v585.143c0 80.791 65.494 146.286 146.286 146.286h512c80.791 0 146.286-65.494 146.286-146.286v-585.143c0-80.791-65.494-146.286-146.286-146.286zM841.143 680.229c0 141.349-4.937 146.286-146.286 146.286h-365.714c-138.971 0-146.286-2.633-146.286-146.286v-438.857c0-134.51 8.338-146.286 146.286-146.286h365.714c137.947 0 146.286 8.338 146.286 146.286v438.857zM731.429 277.943h-438.857c-20.198 0-36.571 16.374-36.571 36.571s16.374 36.571 36.571 36.571h438.857c20.198 0 36.571-16.374 36.571-36.571s-16.374-36.571-36.571-36.571zM731.429 424.229h-438.857c-20.198 0-36.571 16.374-36.571 36.571s16.374 36.571 36.571 36.571h438.857c20.198 0 36.571-16.374 36.571-36.571s-16.374-36.571-36.571-36.571zM731.429 570.514h-438.857c-20.198 0-36.571 16.374-36.571 36.571s16.374 36.571 36.571 36.571h438.857c20.198 0 36.571-16.374 36.571-36.571s-16.374-36.571-36.571-36.571z" />
<glyph unicode="&#xe942;" glyph-name="067_graph_bar" data-tags="graph_bar" d="M912.494 59.904h-800.549c-20.198 0-36.571 16.374-36.571 36.571s16.374 36.571 36.571 36.571h800.549c20.198 0 36.571-16.374 36.571-36.571s-16.374-36.571-36.571-36.571zM841.911 204.727c-20.198 0-36.571 16.374-36.571 36.571v584.229c0 20.198 16.374 36.571 36.571 36.571s36.571-16.374 36.571-36.571v-584.192c0-0.011 0-0.024 0-0.037 0-20.198-16.374-36.571-36.571-36.571 0 0 0 0 0 0zM622.482 204.727c-20.198 0-36.571 16.374-36.571 36.571v474.514c0 20.198 16.374 36.571 36.571 36.571s36.571-16.374 36.571-36.571v-474.478c0-0.011 0-0.024 0-0.037 0-20.198-16.374-36.571-36.571-36.571 0 0 0 0 0 0zM403.054 204.727c-20.198 0-36.571 16.374-36.571 36.571v328.192c0 20.198 16.374 36.571 36.571 36.571s36.571-16.374 36.571-36.571v-328.192c0-20.198-16.374-36.571-36.571-36.571 0 0 0 0 0 0zM183.625 204.727c-20.198 0-36.571 16.374-36.571 36.571v179.639c0 20.198 16.374 36.571 36.571 36.571s36.571-16.374 36.571-36.571v-179.602c0-0.011 0-0.024 0-0.037 0-20.198-16.374-36.571-36.571-36.571 0 0 0 0 0 0z" />
<glyph unicode="&#xe943;" glyph-name="068_graph_bar2" data-tags="graph_bar2" d="M475.429 863.086c-40.396 0-73.143-32.747-73.143-73.143v-658.286c0-40.396 32.747-73.143 73.143-73.143h73.143c40.396 0 73.143 32.747 73.143 73.143v658.286c0 40.396-32.747 73.143-73.143 73.143h-73.143zM512 789.943c20.198 0 36.571-16.374 36.571-36.571v-585.143c0-20.198-16.374-36.571-36.571-36.571s-36.571 16.374-36.571 36.571v585.143c0 20.198 16.374 36.571 36.571 36.571zM219.429 680.229c-40.396 0-73.143-32.747-73.143-73.143v-475.429c0-40.396 32.747-73.143 73.143-73.143h73.143c40.396 0 73.143 32.747 73.143 73.143v475.429c0 40.396-32.747 73.143-73.143 73.143h-73.143zM256 607.086c20.198 0 36.571-16.374 36.571-36.571v-402.286c0-20.198-16.374-36.571-36.571-36.571s-36.571 16.374-36.571 36.571v402.286c0 20.198 16.374 36.571 36.571 36.571zM731.429 533.943c-40.396 0-73.143-32.747-73.143-73.143v-329.143c0-40.396 32.747-73.143 73.143-73.143h73.143c40.396 0 73.143 32.747 73.143 73.143v329.143c0 40.396-32.747 73.143-73.143 73.143h-73.143zM768 460.8c20.198 0 36.571-16.374 36.571-36.571v-256c0-20.198-16.374-36.571-36.571-36.571s-36.571 16.374-36.571 36.571v256c0 20.198 16.374 36.571 36.571 36.571z" />
<glyph unicode="&#xe944;" glyph-name="069_graph_line" data-tags="graph_line" d="M804.571 100.242v-41.728c0-20.198-16.374-36.571-36.571-36.571s-36.571 16.374-36.571 36.571v41.728c-63.577 16.544-109.752 73.435-109.752 141.111s46.175 124.567 108.739 140.887l1.013 480.846c0 20.198 16.374 36.571 36.571 36.571s36.571-16.374 36.571-36.571v-480.585c63.613-16.518 109.824-73.427 109.824-141.129s-46.211-124.611-108.812-140.905zM768 314.514c-40.396 0-73.143-32.747-73.143-73.143s32.747-73.143 73.143-73.143c40.396 0 73.143 32.747 73.143 73.143s-32.747 73.143-73.143 73.143zM548.571 539.099v-480.585c0-20.198-16.374-36.571-36.571-36.571s-36.571 16.374-36.571 36.571v480.585c-63.577 16.544-109.752 73.435-109.752 141.111s46.175 124.567 108.739 140.887l1.013 41.989c0 20.198 16.374 36.571 36.571 36.571s36.571-16.374 36.571-36.571v-41.728c63.613-16.518 109.824-73.427 109.824-141.129s-46.211-124.611-108.812-140.905zM512 753.371c-40.396 0-73.143-32.747-73.143-73.143s32.747-73.143 73.143-73.143c40.396 0 73.143 32.747 73.143 73.143s-32.747 73.143-73.143 73.143zM402.286 387.657c-0.103-67.603-46.206-124.451-108.697-140.902l-1.017-188.241c0-20.198-16.374-36.571-36.571-36.571s-36.571 16.374-36.571 36.571v188.014c-63.577 16.544-109.752 73.435-109.752 141.111s46.175 124.567 108.739 140.887l1.013 334.56c0 20.198 16.374 36.571 36.571 36.571s36.571-16.374 36.571-36.571v-334.299c63.475-16.65 109.592-73.487 109.714-141.115zM256 460.8c-40.396 0-73.143-32.747-73.143-73.143s32.747-73.143 73.143-73.143c40.396 0 73.143 32.747 73.143 73.143s-32.747 73.143-73.143 73.143z" />
<glyph unicode="&#xe945;" glyph-name="070_graph_pie" data-tags="graph_pie" d="M900.096 315.282l0.951-0.293-3.657-9.435c10.433 31.536-2.028-17.189-21.799-61.963l0.039 4.436-0.549-1.426-69.486 22.418c-59.821-125.005-185.3-209.809-330.586-209.809-201.776 0-365.349 163.572-365.349 365.349 0 189.045 143.581 344.554 327.641 363.426l1.555 75.101h73.143v-1.829c225.935-18.46 402.302-206.373 402.302-435.478 0-39.277-5.183-77.343-14.904-113.552zM182.857 424.229c-0.001-0.254-0.001-0.554-0.001-0.855 0-161.098 130.596-291.694 291.694-291.694 113.092 0 211.151 64.359 259.551 158.449l-295.244 97.528v326.619c-144.992-18.781-255.88-141.447-256-290.035zM512 789.943v-349.623l317.659-102.4c6.688 23.714 11.146 54.419 11.482 86.112 0.002 315.186-329.141 365.911-329.141 365.911z" />
<glyph unicode="&#xe946;" glyph-name="071_list_colum" data-tags="list_colum" d="M182.857 899.657c-60.594 0-109.714-49.121-109.714-109.714v-182.857c0-60.594 49.121-109.714 109.714-109.714h182.857c60.594 0 109.714 49.121 109.714 109.714v182.857c0 60.594-49.121 109.714-109.714 109.714h-182.857zM250.222 826.88h48.128c95.598 0 104.265-8.667 104.265-104.265v-48.165c0-98.743-8.667-104.265-104.265-104.265h-48.128c-97.792 0-104.265 7.57-104.265 104.265v48.128c-0.037 94.537 8.631 104.302 104.265 104.302zM658.286 899.657c-60.594 0-109.714-49.121-109.714-109.714v-182.857c0-60.594 49.121-109.714 109.714-109.714h182.857c60.594 0 109.714 49.121 109.714 109.714v182.857c0 60.594-49.121 109.714-109.714 109.714h-182.857zM725.65 826.88h48.165c95.598 0 104.265-8.667 104.265-104.265v-48.165c0-98.743-8.667-104.265-104.265-104.265h-48.165c-97.792 0-104.265 7.57-104.265 104.265v48.128c-0.037 94.537 8.631 104.302 104.265 104.302zM182.857 424.229c-60.594 0-109.714-49.121-109.714-109.714v-182.857c0-60.594 49.121-109.714 109.714-109.714h182.857c60.594 0 109.714 49.121 109.714 109.714v182.857c0 60.594-49.121 109.714-109.714 109.714h-182.857zM250.222 351.451h48.128c95.598 0 104.265-8.667 104.265-104.265v-48.165c0-98.743-8.667-104.265-104.265-104.265h-48.128c-97.792 0-104.265 7.57-104.265 104.265v48.128c-0.037 94.537 8.631 104.302 104.265 104.302zM658.286 424.229c-60.594 0-109.714-49.121-109.714-109.714v-182.857c0-60.594 49.121-109.714 109.714-109.714h182.857c60.594 0 109.714 49.121 109.714 109.714v182.857c0 60.594-49.121 109.714-109.714 109.714h-182.857zM725.65 351.451h48.165c95.598 0 104.265-8.667 104.265-104.265v-48.165c0-98.743-8.667-104.265-104.265-104.265h-48.165c-97.792 0-104.265 7.57-104.265 104.265v48.128c-0.037 94.537 8.631 104.302 104.265 104.302z" />
<glyph unicode="&#xe947;" glyph-name="072_calendar" data-tags="calendar" d="M914.286 58.514h-804.571c-20.198 0-36.571 16.374-36.571 36.571v694.857c0 20.198 16.374 36.571 36.571 36.571h109.714c20.198 0 36.571-16.374 36.571-36.571s-16.374-36.571-36.571-36.571h-73.143v-146.286h731.429v146.286h-73.143c-20.198 0-36.571 16.374-36.571 36.571s16.374 36.571 36.571 36.571h109.714c20.198 0 36.571-16.374 36.571-36.571v-694.857c0-20.198-16.374-36.571-36.571-36.571zM877.714 533.943h-731.429v-402.286h731.429v402.286zM694.857 716.8c-20.198 0-36.571 16.374-36.571 36.571v73.143c0 20.198 16.374 36.571 36.571 36.571s36.571-16.374 36.571-36.571v-73.143c0-20.198-16.374-36.571-36.571-36.571zM585.143 753.371h-146.286c-20.198 0-36.571 16.374-36.571 36.571s16.374 36.571 36.571 36.571h146.286c20.198 0 36.571-16.374 36.571-36.571s-16.374-36.571-36.571-36.571zM329.143 716.8c-20.198 0-36.571 16.374-36.571 36.571v73.143c0 20.198 16.374 36.571 36.571 36.571s36.571-16.374 36.571-36.571v-73.143c0-20.198-16.374-36.571-36.571-36.571z" />
<glyph unicode="&#xe948;" glyph-name="072_frame" data-tags="frame" d="M914.286 95.086h-804.571c-20.198 0-36.571 16.374-36.571 36.571v658.286c0 20.198 16.374 36.571 36.571 36.571h804.571c20.198 0 36.571-16.374 36.571-36.571v-658.286c0-20.198-16.374-36.571-36.571-36.571zM146.286 168.229h109.714v365.714h-109.714v-365.714zM877.714 753.371h-731.429v-146.286h731.429v146.286zM877.714 533.943h-548.571v-365.714h548.571v365.714zM219.429 716.8c20.198 0 36.571-16.374 36.571-36.571s-16.374-36.571-36.571-36.571c-20.198 0-36.571 16.374-36.571 36.571s16.374 36.571 36.571 36.571zM329.143 716.8c20.198 0 36.571-16.374 36.571-36.571s-16.374-36.571-36.571-36.571c-20.198 0-36.571 16.374-36.571 36.571s16.374 36.571 36.571 36.571zM438.857 716.8c20.198 0 36.571-16.374 36.571-36.571s-16.374-36.571-36.571-36.571c-20.198 0-36.571 16.374-36.571 36.571s16.374 36.571 36.571 36.571z" />
<glyph unicode="&#xe949;" glyph-name="073_wallet" data-tags="wallet" d="M914.286 58.514h-804.571c-20.198 0-36.571 16.374-36.571 36.571v621.714c0 0.987 0.475 1.829 0.549 2.816 0.002 2.742 0.78 6.8 2.165 10.564 0.248 0.59 0.651 1.358 1.016 2.199-1.026-0.692 2.307 5.295 6.92 10.028l0.175-0.008c3.295 4.431 10.922 9.262 19.669 10.935l657.89 109.75c1.646 0.265 3.544 0.417 5.477 0.417 10.222 0 19.455-4.236 26.038-11.049 0.558-0.522 1.034-1.071 1.546-1.619-1.15 1.953 3.018-2.858 5.758-8.491-1.248 2.869 0.674-0.863 1.894-4.9-1.275 2.848 0.6-0.825 1.793-4.793 0.096-0.795 0.115-1.434 0.115-2.077s-0.018-1.282-0.055-1.916c0.004-0.314 0.479-1.156 0.479-2.143v-182.857h109.714c20.198 0 36.571-16.374 36.571-36.571v-512c0-20.198-16.374-36.571-36.571-36.571zM731.429 782.958l-585.143-97.573v-41.728h585.143v139.301zM877.714 570.514h-731.429v-438.857h731.429v438.857zM713.143 460.8c50.495 0 91.429-40.934 91.429-91.429s-40.934-91.429-91.429-91.429c-50.495 0-91.429 40.934-91.429 91.429s40.934 91.429 91.429 91.429zM713.143 351.086c10.099 0 18.286 8.187 18.286 18.286s-8.187 18.286-18.286 18.286c-10.099 0-18.286-8.187-18.286-18.286s8.187-18.286 18.286-18.286z" />
<glyph unicode="&#xe94a;" glyph-name="074_get_out" data-tags="get_out" d="M868.059 437.285l-185.49-186.075c-5.841-5.823-13.901-9.424-22.802-9.424-17.838 0-32.299 14.461-32.299 32.299 0 8.937 3.63 17.027 9.496 22.875l134.035 134.584h-409.161c-17.875 0-32.366 14.491-32.366 32.366s14.491 32.366 32.366 32.366h403.090l-128 128.402c-6.125 5.886-9.93 14.147-9.93 23.296 0 17.835 14.458 32.293 32.293 32.293 9.14 0 17.393-3.797 23.268-9.901l185.5-186.086c5.783-6.116 9.338-14.392 9.338-23.497s-3.555-17.381-9.354-23.513zM475.429 570.514c-20.198 0-36.571 16.374-36.571 36.571v146.286h-219.429v-585.143h219.429v146.286c0 20.198 16.374 36.571 36.571 36.571s36.571-16.374 36.571-36.571v-182.857c0-20.198-16.374-36.571-36.571-36.571h-292.571c-20.198 0-36.571 16.374-36.571 36.571v658.286c0 20.198 16.374 36.571 36.571 36.571h292.571c20.198 0 36.571-16.374 36.571-36.571v-182.857c0-20.198-16.374-36.571-36.571-36.571z" />
<glyph unicode="&#xe94b;" glyph-name="075_get_in" data-tags="get_in" d="M612.059 437.797l-185.49-186.514c-5.82-5.869-13.887-9.502-22.802-9.502s-16.982 3.633-22.8 9.5c-5.844 5.89-9.454 13.999-9.454 22.951s3.61 17.061 9.454 22.951l134.069 134.837h-336.055c-17.915 0-32.439 14.523-32.439 32.439s14.523 32.439 32.439 32.439h329.947l-128 128.731c-5.842 5.887-9.452 13.996-9.452 22.949s3.61 17.061 9.454 22.951c5.818 5.867 13.885 9.5 22.8 9.5s16.982-3.633 22.8-9.5l185.492-186.516c5.824-6.146 9.405-14.468 9.405-23.626 0-9.14-3.567-17.446-9.384-23.604zM548.571 680.229c20.198 0 36.571 16.374 36.571 36.571v36.571h219.429v-585.143h-219.429v36.571c0 20.198-16.374 36.571-36.571 36.571s-36.571-16.374-36.571-36.571v-73.143c0-20.198 16.374-36.571 36.571-36.571h292.571c20.198 0 36.571 16.374 36.571 36.571v658.286c0 20.198-16.374 36.571-36.571 36.571h-292.571c-20.198 0-36.571-16.374-36.571-36.571v-73.143c0-20.198 16.374-36.571 36.571-36.571z" />
<glyph unicode="&#xe94c;" glyph-name="076_box_plus" data-tags="box_plus" d="M804.571 21.943h-585.143c-80.791 0-146.286 65.494-146.286 146.286v585.143c0 80.791 65.494 146.286 146.286 146.286h585.143c80.791 0 146.286-65.494 146.286-146.286v-585.143c0-80.791-65.494-146.286-146.286-146.286zM764.965 497.371h-216.393v216.393c0 20.198-16.374 36.571-36.571 36.571s-36.571-16.374-36.571-36.571v-216.393h-216.393c-20.198 0-36.571-16.374-36.571-36.571s16.374-36.571 36.571-36.571h216.393v-216.393c0-20.198 16.374-36.571 36.571-36.571s36.571 16.374 36.571 36.571v216.393h216.393c20.198 0 36.571 16.374 36.571 36.571s-16.374 36.571-36.571 36.571z" />
<glyph unicode="&#xe94d;" glyph-name="077_box_minus" data-tags="box_minus" d="M804.571 21.943h-585.143c-80.791 0-146.286 65.494-146.286 146.286v585.143c0 80.791 65.494 146.286 146.286 146.286h585.143c80.791 0 146.286-65.494 146.286-146.286v-585.143c0-80.791-65.494-146.286-146.286-146.286zM764.965 497.371h-505.929c-20.198 0-36.571-16.374-36.571-36.571s16.374-36.571 36.571-36.571h505.929c20.198 0 36.571 16.374 36.571 36.571s-16.374 36.571-36.571 36.571z" />
<glyph unicode="&#xe94e;" glyph-name="078_bullet_donut" data-tags="bullet_donut" d="M512 863.086c-222.176 0-402.286-180.109-402.286-402.286s180.109-402.286 402.286-402.286c222.176 0 402.286 180.109 402.286 402.286s-180.109 402.286-402.286 402.286zM512 753.371c161.583 0 292.571-130.989 292.571-292.571s-130.989-292.571-292.571-292.571c-161.583 0-292.571 130.989-292.571 292.571s130.989 292.571 292.571 292.571z" />
<glyph unicode="&#xe94f;" glyph-name="079_bullet_plus" data-tags="bullet_plus" d="M577.829 424.229h-29.257v-29.257c0.088-1.002 0.138-2.168 0.138-3.345 0-21.081-16.011-38.422-36.536-40.526-20.872 2.105-36.882 19.446-36.882 40.526 0 1.177 0.050 2.343 0.148 3.495l-0.010 29.107h-29.257c-1.002-0.088-2.168-0.138-3.345-0.138-21.081 0-38.422 16.011-40.526 36.536 2.105 20.872 19.446 36.882 40.526 36.882 1.177 0 2.343-0.050 3.495-0.148l29.107 0.010v29.257c-0.088 1.002-0.138 2.168-0.138 3.345 0 21.081 16.011 38.422 36.536 40.526 20.872-2.105 36.882-19.446 36.882-40.526 0-1.177-0.050-2.343-0.148-3.495l0.010-29.107h29.257c1.002 0.088 2.168 0.138 3.345 0.138 21.081 0 38.422-16.011 40.526-36.536-2.105-20.872-19.446-36.882-40.526-36.882-1.177 0-2.343 0.050-3.495 0.148z" />
<glyph unicode="&#xe950;" glyph-name="080_bullet_minus" data-tags="bullet_minus" d="M446.171 424.229c-1.002-0.088-2.168-0.138-3.345-0.138-21.081 0-38.422 16.011-40.526 36.536 2.105 20.872 19.446 36.882 40.526 36.882 1.177 0 2.343-0.050 3.495-0.148l131.507 0.010c1.002 0.088 2.168 0.138 3.345 0.138 21.081 0 38.422-16.011 40.526-36.536-2.105-20.872-19.446-36.882-40.526-36.882-1.177 0-2.343 0.050-3.495 0.148l-131.507-0.010z" />
<glyph unicode="&#xe951;" glyph-name="081_bullet_box_minus" data-tags="bullet_box_minus" d="M804.571 21.943c80.791 0 146.286 65.494 146.286 146.286v585.143c0 80.791-65.494 146.286-146.286 146.286h-585.143c-80.791 0-146.286-65.494-146.286-146.286v-585.143c0-80.791 65.494-146.286 146.286-146.286h585.143zM256 387.657c-40.396 0-73.143 32.747-73.143 73.143s32.747 73.143 73.143 73.143h512c40.396 0 73.143-32.747 73.143-73.143s-32.747-73.143-73.143-73.143h-512z" />
<glyph unicode="&#xe952;" glyph-name="082_bullet_box_plus" data-tags="bullet_box_plus" d="M804.571 21.943c80.791 0 146.286 65.494 146.286 146.286v585.143c0 80.791-65.494 146.286-146.286 146.286h-585.143c-80.791 0-146.286-65.494-146.286-146.286v-585.143c0-80.791 65.494-146.286 146.286-146.286h585.143zM768 387.657h-182.857v-182.857c0-40.396-32.747-73.143-73.143-73.143s-73.143 32.747-73.143 73.143v182.857h-182.857c-40.396 0-73.143 32.747-73.143 73.143s32.747 73.143 73.143 73.143h182.857v182.857c0 40.396 32.747 73.143 73.143 73.143s73.143-32.747 73.143-73.143v-182.857h182.857c40.396 0 73.143-32.747 73.143-73.143s-32.747-73.143-73.143-73.143z" />
<glyph unicode="&#xe953;" glyph-name="083_employee_s1" data-tags="employee_s1" d="M804.571 131.657h-182.857l-73.143-109.714c-8.327-15.713-20.858-28.245-36.104-36.345-16.179 8.102-28.71 20.633-36.812 35.877l-73.37 110.182h-182.857c-36.259 0.428-66.327 26.404-73.065 60.744l-0.078 684.948c-0.001 0.11-0.001 0.241-0.001 0.371 0 32.034 25.742 58.056 57.668 58.508h616.052c31.969-0.453 57.711-26.475 57.711-58.509 0-0.131 0-0.261-0.001-0.391v-684.451c-6.816-34.816-36.884-60.793-73.097-61.22zM804.571 863.086h-585.143v-658.286h219.429c15.713-8.327 28.245-20.858 36.345-36.104l36.798-73.61 36.571 73.143c8.325 15.715 20.857 28.247 36.104 36.345l219.896 0.227v658.286zM290.304 321.609c-0.001 0.209-0.001 0.455-0.001 0.702 0 91.45 54.138 170.254 132.113 206.113-32.488 27.985-54.577 68.832-56.69 114.891 4.273 79.35 67.265 142.342 145.88 146.61 79.401-4.268 142.393-67.261 146.661-145.876-2.074-46.368-23.797-86.884-56.906-114.021 78.191-28.351 133.31-102.086 133.31-188.694 0-6.947-0.355-13.811-1.047-20.575-9.603-16.773-22.675-31.388-38.374-42.551 6.298 5.146-366.109-0.266-366.109-0.266-19.788 6.558-34.61 22.983-38.775 43.294zM512 712.741c-2.487 0.337-5.361 0.529-8.281 0.529-35.912 0-65.024-29.112-65.024-65.024 0-1.615 0.059-3.216 0.175-4.801-0.144-1.371-0.218-3.216-0.218-5.077 0-37.588 30.471-68.059 68.059-68.059 1.862 0 3.706 0.075 5.529 0.221 1.343-0.147 3.188-0.221 5.049-0.221 37.588 0 68.059 30.471 68.059 68.059 0 1.862-0.075 3.706-0.221 5.529 0.119 1.133 0.178 2.734 0.178 4.349 0 35.912-29.112 65.024-65.024 65.024-2.919 0-5.794-0.192-8.612-0.565zM658.286 351.086c-12.91 81.554-62.793 142.007-146.286 142.007s-133.376-60.453-146.286-142.007h292.571zM804.571 204.8c0-2.231-13.824 15.982 0 0z" />
<glyph unicode="&#xe954;" glyph-name="084_employee_s2" data-tags="employee_s2" d="M828.233 75.447h-6.473c6.569 9.13 11.136 20.127 12.828 32.050 0.049 0.389 0.053 0.389 0.057 0.389 23.433 0 42.496 18.709 43.068 42.004l0.001 658.339c0.519 2.102 0.816 4.515 0.816 6.997 0 16.784-13.606 30.391-30.391 30.391-2.482 0-4.895-0.298-7.205-0.859l-548.364 0.043c-7.128 1.019-15.361 1.601-23.729 1.601-4.519 0-8.999-0.17-13.433-0.503l-50.317 0.036c15.36 21.467 41.911 72.302 72.155 72.302h587.557c1.060 0.049 2.303 0.076 3.552 0.076 44.097 0 80.125-34.549 82.491-78.056l0.009-686.656c0-43.081-75.081-78.153-122.624-78.153zM804.571 735.086v-658.286c0-43.154-46.811-72.814-94.354-72.814h-550.985c-1.102-0.053-2.394-0.083-3.693-0.083-44.077 0-80.082 34.564-82.388 78.067l-0.009 650.080c2.334 43.692 38.33 78.236 82.395 78.236 1.299 0 2.592-0.030 3.877-0.089l535.443-1.968c47.543 0 109.714-30.025 109.714-73.143zM146.286 698.514v-585.143c-0.519-2.102-0.816-4.515-0.816-6.997 0-16.784 13.606-30.391 30.391-30.391 2.482 0 4.895 0.298 7.205 0.859l511.792-0.043c2.102-0.519 4.515-0.816 6.997-0.816 16.784 0 30.391 13.606 30.391 30.391 0 2.482-0.298 4.895-0.859 7.205l0.043 584.935c0.519 2.102 0.816 4.515 0.816 6.997 0 16.784-13.606 30.391-30.391 30.391-2.482 0-4.895-0.298-7.205-0.859l-511.792 0.043c-2.102 0.519-4.515 0.816-6.997 0.816-16.784 0-30.391-13.606-30.391-30.391 0-2.482 0.298-4.895 0.859-7.205zM464.64 212.114l47.36 47.543-67.767 104.777-5.376 4.937-13.641-4.974-59.502-104.741 47.543-47.543c-100.645 2.487-193.829 18.286-193.829 47.543 0 53.979 54.089 125.001 146.286 146.286-38.51 23.552-36.571 67.84-36.571 109.714 0 60.594 49.121 109.714 109.714 109.714s109.714-49.121 109.714-109.714c0-41.874 2.048-86.162-36.571-109.714 92.379-21.285 146.286-92.306 146.286-146.286 0-29.257-93.184-45.056-193.646-47.543zM402.286 405.943l13.422-13.422c-3.438 5.482-7.94 9.984-13.249 13.32zM462.043 392.558l13.385 13.385c-5.47-3.424-9.961-7.915-13.284-13.213zM438.857 186.514l-25.6 25.6c17.189-0.402 34.414-0.402 51.566 0z" />
<glyph unicode="&#xe955;" glyph-name="085_list_s1" data-tags="list_s1" d="M896.585 351.086h-402.286c-30.297 0-54.857 24.56-54.857 54.857s24.56 54.857 54.857 54.857h402.286c30.297 0 54.857-24.56 54.857-54.857s-24.56-54.857-54.857-54.857zM896.585 643.657h-402.286c-30.297 0-54.857 24.56-54.857 54.857s24.56 54.857 54.857 54.857h402.286c30.297 0 54.857-24.56 54.857-54.857s-24.56-54.857-54.857-54.857zM257.609 586.277c-9.387-14.53-25.024-24.33-43.015-25.59-1.566-0.010-2.919-0.010-4.272-0.010-0.057 0-0.124 0-0.192 0-16.853 0-31.97 7.437-42.247 19.207l-81.135 93.689c-8.14 9.322-13.104 21.6-13.104 35.038 0 16.696 7.663 31.602 19.664 41.393 9.754 8.047 22.257 12.881 35.89 12.881 16.924 0 32.108-7.45 42.451-19.25l31.69-36.636 105.618 166.839c10.168 15.613 27.539 25.791 47.288 25.791 10.788 0 20.866-3.037 29.427-8.303 15.636-9.317 26.109-26.397 26.109-45.922 0-10.603-3.088-20.485-8.415-28.794zM238.299 497.371c50.495 0 91.429-40.934 91.429-91.429s-40.934-91.429-91.429-91.429c-50.495 0-91.429 40.934-91.429 91.429s40.934 91.429 91.429 91.429zM238.299 204.8c50.495 0 91.429-40.934 91.429-91.429s-40.934-91.429-91.429-91.429c-50.495 0-91.429 40.934-91.429 91.429s40.934 91.429 91.429 91.429zM494.299 168.229h402.286c30.297 0 54.857-24.56 54.857-54.857s-24.56-54.857-54.857-54.857h-402.286c-30.297 0-54.857 24.56-54.857 54.857s24.56 54.857 54.857 54.857z" />
<glyph unicode="&#xe956;" glyph-name="086_photo" data-tags="photo" d="M841.143 21.943h-658.286c-40.592 0.035-75.999 22.205-94.804 55.090l-6.024 5.582 2.085 2.121c-6.824 13.7-10.863 29.826-10.971 46.885v658.322c0 60.594 49.121 109.714 109.714 109.714h658.286c60.594 0 109.714-49.121 109.714-109.714v-658.286c0-60.594-49.121-109.714-109.714-109.714zM841.143 95.086c20.198 0 36.571 16.374 36.571 36.571v73.143l-27.538-24.101-210.176 240.238-161.682-184.795 123.429-141.056h239.397zM504.686 95.086l-75.557 86.345-54.235 47.543 6.363 7.314-33.829 38.363-157.257-179.566h314.514zM841.143 826.514h-658.286c-20.198 0-36.571-16.374-36.571-36.571v-634.112l191.89 219.429 9.253-8.192 9.253 8.082 73.143-83.493 201.143 229.778 9.033-8.082 9.253 8.082 228.462-261.083v529.591c0 20.198-16.374 36.571-36.571 36.571zM347.429 460.8c-70.692 0-128 57.308-128 128s57.308 128 128 128c70.692 0 128-57.308 128-128s-57.308-128-128-128zM347.429 643.657c-30.297 0-54.857-24.56-54.857-54.857s24.56-54.857 54.857-54.857c30.297 0 54.857 24.56 54.857 54.857s-24.56 54.857-54.857 54.857z" />
<glyph unicode="&#xe957;" glyph-name="087_flieadd" data-tags="flieadd" d="M912.969 588.251l-478.83-475.758c-36.431-32.576-84.785-52.488-137.789-52.488-60.752 0-115.394 26.158-153.278 67.825-42.12 37.653-68.416 91.926-68.416 152.341 0 52.811 20.093 100.928 53.051 137.125l348.306 345.766c6.866 9.934 18.195 16.36 31.024 16.36 8.65 0 16.617-2.921 22.969-7.83 4.788-6.161 7.731-14.105 7.731-22.735 0-12.752-6.423-24.003-16.211-30.695l-303.67-301.76s-149.358-125.842-30.757-243.529 246.418 29.257 246.418 29.257l399.762 397.166s91.758 82.688 13.787 160.219-161.134-13.458-161.134-13.458l-355.95-353.463s-80.713-61.879-32.402-111.214 111.909 32.219 111.909 32.219l271.323 269.751c5.796 10.526 16.816 17.539 29.475 17.539 18.521 0 33.536-15.015 33.536-33.536 0-12.868-7.247-24.042-17.882-29.666l-293.083-290.977s-84.114-106.386-180.041-11.191 9.765 180.334 9.765 180.334l412.050 409.234c26.983 23.073 62.29 37.114 100.876 37.114 47.665 0 90.325-21.425 118.876-55.171 34.372-28.534 55.985-70.981 55.985-118.477 0-38.449-14.164-73.59-37.56-100.489z" />
<glyph unicode="&#xe958;" glyph-name="088_view_detail" data-tags="view_detail" d="M882.249 497.371h-7.607c1.353 0 3.072 0 3.072 0h-42.642c14.629 0 27.867-0.219 35.474-0.183-32.914-0.549-70.4-1.134-102.4-1.573v-363.959c0-60.594-49.121-109.714-109.714-109.714h-475.575c-60.594 0-109.714 49.121-109.714 109.714v658.286c0 60.594 49.121 109.714 109.714 109.714h658.286v-1.829c62.293-9.082 109.611-62.085 109.714-126.161v-274.297h-68.608zM694.857 495.067v294.875c0 20.198-16.374 36.571-36.571 36.571h-475.429c-20.198 0-36.571-16.374-36.571-36.571v-658.286c0-20.198 16.374-36.571 36.571-36.571h475.429c20.198 0 36.571 16.374 36.571 36.571v363.41zM877.714 771.657c0 30.297-24.56 54.857-54.857 54.857s-54.857-24.56-54.857-54.857v-201.143h109.714v201.143zM585.143 643.657h-329.143c-20.198 0-36.571 16.374-36.571 36.571s16.374 36.571 36.571 36.571h329.143c20.198 0 36.571-16.374 36.571-36.571s-16.374-36.571-36.571-36.571zM256 497.371h292.571c20.198 0 36.571-16.374 36.571-36.571s-16.374-36.571-36.571-36.571h-292.571c-20.198 0-36.571 16.374-36.571 36.571s16.374 36.571 36.571 36.571zM256 277.943h182.857c20.198 0 36.571-16.374 36.571-36.571s-16.374-36.571-36.571-36.571h-182.857c-20.198 0-36.571 16.374-36.571 36.571s16.374 36.571 36.571 36.571z" />
<glyph unicode="&#xe959;" glyph-name="089_mtree_open" data-tags="mtree_open" d="M896 789.943h-768c-30.297 0-54.857 24.56-54.857 54.857s24.56 54.857 54.857 54.857h768c30.297 0 54.857-24.56 54.857-54.857s-24.56-54.857-54.857-54.857zM389.266 413.769l122.734-123.831 122.734 123.831c6.341 6.415 15.141 10.388 24.869 10.388s18.527-3.973 24.865-10.384c6.375-6.453 10.311-15.322 10.311-25.11s-3.936-18.657-10.311-25.11l-146.867-148.257c-6.625-6.389-15.653-10.324-25.6-10.324s-18.975 3.936-25.611 10.335l-146.86 148.25c-6.372 6.45-10.307 15.318-10.307 25.106s3.936 18.657 10.311 25.11c6.338 6.411 15.137 10.384 24.865 10.384s18.527-3.973 24.865-10.384zM333.093 572.489l152.905 152.905c6.908 6.558 16.267 10.592 26.569 10.592s19.662-4.034 26.586-10.608l152.888-152.889c6.622-6.622 10.717-15.77 10.717-25.874 0-20.209-16.383-36.592-36.592-36.592-10.105 0-19.252 4.096-25.874 10.717l-127.707 127.707-127.707-127.707c-6.625-6.63-15.78-10.73-25.893-10.73-20.216 0-36.605 16.388-36.605 36.605 0 10.104 4.093 19.251 10.712 25.874zM128 131.657h768c30.297 0 54.857-24.56 54.857-54.857s-24.56-54.857-54.857-54.857h-768c-30.297 0-54.857 24.56-54.857 54.857s24.56 54.857 54.857 54.857z" />
<glyph unicode="&#xe95a;" glyph-name="090_mtree_close" data-tags="mtree_close" d="M896 497.371h-768c-30.297 0-54.857 24.56-54.857 54.857s24.56 54.857 54.857 54.857h768c30.297 0 54.857-24.56 54.857-54.857s-24.56-54.857-54.857-54.857zM537.6 690.725c-6.625-6.389-15.653-10.324-25.6-10.324s-18.975 3.936-25.611 10.335l-146.86 148.286c-6.372 6.45-10.307 15.318-10.307 25.106s3.936 18.657 10.311 25.11c6.338 6.411 15.137 10.384 24.865 10.384s18.527-3.973 24.865-10.384l122.737-123.871 122.734 123.831c6.341 6.415 15.141 10.388 24.869 10.388s18.527-3.973 24.865-10.384c6.375-6.453 10.311-15.322 10.311-25.11s-3.936-18.657-10.311-25.11zM128 424.229h768c30.297 0 54.857-24.56 54.857-54.857s-24.56-54.857-54.857-54.857h-768c-30.297 0-54.857 24.56-54.857 54.857s24.56 54.857 54.857 54.857zM486.4 230.875c6.625 6.389 15.653 10.324 25.6 10.324s18.975-3.936 25.611-10.335l146.933-148.25c6.372-6.45 10.307-15.318 10.307-25.106s-3.936-18.657-10.311-25.11c-6.338-6.411-15.137-10.384-24.865-10.384s-18.527 3.973-24.865 10.384l-122.81 123.834-122.734-123.831c-6.341-6.415-15.141-10.388-24.869-10.388s-18.527 3.973-24.865 10.384c-6.375 6.453-10.311 15.322-10.311 25.11s3.936 18.657 10.311 25.11z" />
<glyph unicode="&#xe95b;" glyph-name="091_mtree_1dpAdd" data-tags="mtree_1dpAdd" d="M896 588.8h-91.429v-91.429c0-30.297-24.56-54.857-54.857-54.857s-54.857 24.56-54.857 54.857v91.429h-91.429c-30.297 0-54.857 24.56-54.857 54.857s24.56 54.857 54.857 54.857h91.429v91.429c0 30.297 24.56 54.857 54.857 54.857s54.857-24.56 54.857-54.857v-91.429h91.429c30.297 0 54.857-24.56 54.857-54.857s-24.56-54.857-54.857-54.857zM621.714 460.8c0-30.297-24.56-54.857-54.857-54.857h-438.857c-30.297 0-54.857 24.56-54.857 54.857s24.56 54.857 54.857 54.857h438.857c30.297 0 54.857-24.56 54.857-54.857zM256 296.229c20.198 0 36.571-16.374 36.571-36.571s-16.374-36.571-36.571-36.571c-20.198 0-36.571 16.374-36.571 36.571s16.374 36.571 36.571 36.571zM256 149.943c20.198 0 36.571-16.374 36.571-36.571s-16.374-36.571-36.571-36.571c-20.198 0-36.571 16.374-36.571 36.571s16.374 36.571 36.571 36.571zM402.286 296.229h438.857c20.198 0 36.571-16.374 36.571-36.571s-16.374-36.571-36.571-36.571h-438.857c-20.198 0-36.571 16.374-36.571 36.571s16.374 36.571 36.571 36.571zM402.286 149.943h438.857c20.198 0 36.571-16.374 36.571-36.571s-16.374-36.571-36.571-36.571h-438.857c-20.198 0-36.571 16.374-36.571 36.571s16.374 36.571 36.571 36.571z" />
<glyph unicode="&#xe95c;" glyph-name="092_mtree_2dpAdd" data-tags="mtree_2dpAdd" d="M822.857 607.086h-91.429v-91.429c0-30.297-24.56-54.857-54.857-54.857s-54.857 24.56-54.857 54.857v91.429h-91.429c-30.297 0-54.857 24.56-54.857 54.857s24.56 54.857 54.857 54.857h91.429v91.429c0 30.297 24.56 54.857 54.857 54.857s54.857-24.56 54.857-54.857v-91.429h91.429c30.297 0 54.857-24.56 54.857-54.857s-24.56-54.857-54.857-54.857zM804.571 387.657c0-20.198-16.374-36.571-36.571-36.571h-438.857c-20.198 0-36.571 16.374-36.571 36.571s16.374 36.571 36.571 36.571h438.857c20.198 0 36.571-16.374 36.571-36.571zM182.857 58.514c-20.198 0-36.571 16.374-36.571 36.571s16.374 36.571 36.571 36.571c20.198 0 36.571-16.374 36.571-36.571s-16.374-36.571-36.571-36.571zM182.857 204.8c-20.198 0-36.571 16.374-36.571 36.571s16.374 36.571 36.571 36.571c20.198 0 36.571-16.374 36.571-36.571s-16.374-36.571-36.571-36.571zM182.857 351.086c-20.198 0-36.571 16.374-36.571 36.571s16.374 36.571 36.571 36.571c20.198 0 36.571-16.374 36.571-36.571s-16.374-36.571-36.571-36.571zM329.143 277.943h438.857c20.198 0 36.571-16.374 36.571-36.571s-16.374-36.571-36.571-36.571h-438.857c-20.198 0-36.571 16.374-36.571 36.571s16.374 36.571 36.571 36.571zM329.143 131.657h438.857c20.198 0 36.571-16.374 36.571-36.571s-16.374-36.571-36.571-36.571h-438.857c-20.198 0-36.571 16.374-36.571 36.571s16.374 36.571 36.571 36.571z" />
<glyph unicode="&#xe95d;" glyph-name="093_mtree_all" data-tags="mtree_all" d="M814.482 367.945c-6.065-9.392-16.165-15.731-27.789-16.56l-2.749-0.007c-0.041 0-0.090 0-0.139 0-10.883 0-20.646 4.797-27.29 12.392l-52.516 60.458c-5.253 6.025-8.456 13.956-8.456 22.636 0 10.793 4.953 20.429 12.709 26.76 6.31 5.181 14.387 8.291 23.19 8.291 10.936 0 20.75-4.8 27.452-12.408l20.478-23.665 68.279 107.849c6.569 10.103 17.803 16.691 30.576 16.691 6.975 0 13.492-1.965 19.026-5.37 10.095-6.031 16.855-17.068 16.855-29.683 0-6.849-1.992-13.232-5.429-18.603zM814.482 623.945c-6.065-9.392-16.165-15.731-27.789-16.56l-2.749-0.007c-0.041 0-0.090 0-0.139 0-10.883 0-20.646 4.797-27.29 12.392l-52.516 60.458c-5.253 6.025-8.456 13.956-8.456 22.636 0 10.793 4.953 20.429 12.709 26.76 6.31 5.181 14.387 8.291 23.19 8.291 10.936 0 20.75-4.8 27.452-12.408l20.478-23.665 68.279 107.849c6.569 10.103 17.803 16.691 30.576 16.691 6.975 0 13.492-1.965 19.026-5.37 10.095-6.031 16.855-17.068 16.855-29.683 0-6.849-1.992-13.232-5.429-18.603zM585.143 131.657h-292.571c-20.198 0-36.571 16.374-36.571 36.571s16.374 36.571 36.571 36.571h292.571c20.198 0 36.571-16.374 36.571-36.571s-16.374-36.571-36.571-36.571zM585.143 387.657h-292.571c-20.198 0-36.571 16.374-36.571 36.571s16.374 36.571 36.571 36.571h292.571c20.198 0 36.571-16.374 36.571-36.571s-16.374-36.571-36.571-36.571zM585.143 643.657h-292.571c-20.198 0-36.571 16.374-36.571 36.571s16.374 36.571 36.571 36.571h292.571c20.198 0 36.571-16.374 36.571-36.571s-16.374-36.571-36.571-36.571zM146.286 131.657c-20.198 0-36.571 16.374-36.571 36.571s16.374 36.571 36.571 36.571c20.198 0 36.571-16.374 36.571-36.571s-16.374-36.571-36.571-36.571zM146.286 387.657c-20.198 0-36.571 16.374-36.571 36.571s16.374 36.571 36.571 36.571c20.198 0 36.571-16.374 36.571-36.571s-16.374-36.571-36.571-36.571zM146.286 643.657c-20.198 0-36.571 16.374-36.571 36.571s16.374 36.571 36.571 36.571c20.198 0 36.571-16.374 36.571-36.571s-16.374-36.571-36.571-36.571zM758.93 213.614l20.443-23.625 68.279 107.849c6.569 10.103 17.803 16.691 30.576 16.691 6.975 0 13.492-1.965 19.026-5.37 10.095-6.031 16.855-17.068 16.855-29.683 0-6.849-1.992-13.232-5.429-18.603l-94.235-148.89c-6.065-9.392-16.165-15.731-27.789-16.56l-2.749-0.007c-0.032 0-0.070 0-0.108 0-10.9 0-20.677 4.812-27.321 12.428l-52.48 60.386c-5.253 6.025-8.456 13.956-8.456 22.636 0 10.793 4.953 20.429 12.709 26.76 6.322 5.218 14.428 8.353 23.265 8.353 10.896 0 20.679-4.765 27.379-12.325z" />
<glyph unicode="&#xe95e;" glyph-name="094_mtree_read" data-tags="mtree_read" d="M950.857 570.514c0 20.198-16.374 36.571-36.571 36.571-10.094 0-206.19 146.286-402.286 146.286s-392.192-146.286-402.286-146.286c-20.198 0-36.571-16.374-36.571-36.571s16.374-36.571 36.571-36.571c10.094 0 205.422 146.286 401.152 146.286 196.462 0 393.289-146.286 403.419-146.286 20.198 0 36.571 16.374 36.571 36.571zM950.857 351.086c0-20.198-16.374-36.571-36.571-36.571-10.094 0-206.19-146.286-402.286-146.286s-392.192 146.286-402.286 146.286c-20.198 0-36.571 16.374-36.571 36.571s16.374 36.571 36.571 36.571c10.094 0 205.422-146.286 401.152-146.286 196.462 0 393.289 146.286 403.419 146.286 20.198 0 36.571-16.374 36.571-36.571zM512 680.229c-121.187 0-219.429-98.242-219.429-219.429s98.242-219.429 219.429-219.429c121.187 0 219.429 98.242 219.429 219.429s-98.242 219.429-219.429 219.429zM512 607.086c80.791 0 146.286-65.494 146.286-146.286s-65.494-146.286-146.286-146.286c-80.791 0-146.286 65.494-146.286 146.286s65.494 146.286 146.286 146.286z" />
</font>
</defs>
</svg>
